<svg id="a50fd755-b70f-4e5f-b336-9e50a578b62c" xmlns="http://www.w3.org/2000/svg" xmlns:xlink="http://www.w3.org/1999/xlink" viewBox="0 0 1128.33 786.75"><defs><style>.cls-1,.cls-2{fill:#0bc4d2;}.cls-1,.cls-13,.cls-5,.cls-8{opacity:0.1;}.cls-1,.cls-11,.cls-5,.cls-8{isolation:isolate;}.cls-3,.cls-8{fill:#444053;}.cls-4{fill:#3f3d56;}.cls-6{fill:#fff;}.cls-7{fill:#e77185;}.cls-9{fill:url(#linear-gradient);}.cls-10{fill:#a1616a;}.cls-11{opacity:0.15;}.cls-12{fill:#fbbebe;}</style><linearGradient id="linear-gradient" x1="865.66" y1="-43.04" x2="865.66" y2="387.49" gradientTransform="matrix(1, 0, 0, -1, -35.84, 731.37)" gradientUnits="userSpaceOnUse"><stop offset="0" stop-color="gray" stop-opacity="0.25"/><stop offset="0.54" stop-color="gray" stop-opacity="0.12"/><stop offset="1" stop-color="gray" stop-opacity="0.1"/></linearGradient></defs><title>appts</title><path class="cls-1" d="M652.83,132.91c-70-2.43-136.75-25-200.46-49.78S325.57,31,257.2,17.87c-44-8.44-94.26-9.63-129.69,14C93.41,54.5,82.4,93.66,76.47,130c-4.45,27.34-7.07,56.11,5.14,81.71,8.47,17.76,23.52,32.7,33.9,49.72,36.21,59.23,10.65,132.25-28.64,190.09-18.4,27.12-39.77,53-54,81.88s-20.74,62-8.26,91.46C37,654.07,66.29,676,98.13,691.43,162.68,722.7,238.8,731.67,313,736.75c164.31,11.24,329.51,6.37,494.26,1.5,61-1.81,122.22-3.63,182.19-13.07,33.31-5.23,67.7-13.56,91.89-33.6,30.69-25.46,38.3-68.59,17.73-100.52-34.5-53.57-129.9-66.84-154-124.35-13.28-31.64.36-66.89,19.65-96.22,41.38-63,110.75-118.18,114.4-190.13,2.52-49.4-30.83-98.92-82.39-122.3-54-24.51-129-21.43-168.86,19.15C786.83,119,714.68,135.05,652.83,132.91Z"/><path class="cls-2" d="M892,672.86a30,30,0,0,0-12.2-1.3c-5,.54-4.3,8.17.73,7.81A35.94,35.94,0,0,0,888,678Z"/><path class="cls-2" d="M893.54,672.93a29.66,29.66,0,0,1,3,11.9c.17,5-7.48,5.4-7.83.37a36.58,36.58,0,0,1,.33-7.54Z"/><path class="cls-2" d="M904.93,656.62s-2.45-7.7-17.43-4.71c-6.78,1.34-6.6,11.07.19,12.1H888C897.87,665.38,901.31,661.46,904.93,656.62Z"/><path class="cls-2" d="M906.49,656.16s8,.63,8.55,15.89c.24,6.86-9.27,9-11.81,2.57a.9.9,0,0,0-.11-.28C899.57,665,902.6,660.79,906.49,656.16Z"/><path class="cls-2" d="M917.24,636.5a16,16,0,0,0-10.81-12.07c-10.14-3.2-15.5,12-5.59,15.83a31.82,31.82,0,0,0,12.83,1.86Z"/><path class="cls-2" d="M929.61,611.17s-4.1-9.69-14.72-11.63c-11.27-2.06-14.68,14.86-3.55,17.57a37.27,37.27,0,0,0,15.17.12Z"/><path class="cls-2" d="M937.08,586.23a24,24,0,0,0-15.5-10.66c-9.68-1.82-13,12.68-3.44,15.16a36.27,36.27,0,0,0,18.16-.25Z"/><path class="cls-2" d="M944.12,561.91a25.05,25.05,0,0,0-13.56-10.78c-9.69-3-14.47,11.71-4.84,14.91a27.59,27.59,0,0,0,17.57-.07Z"/><path class="cls-2" d="M947.09,539.76s-3.88-9.08-11.77-13.89c-8.8-5.36-17.18,7.75-8.72,13.65,5.21,3.65,11.88,6.17,19.68,4.48Z"/><path class="cls-2" d="M948.55,513.48s-4.27-9.17-12.47-13.56c-9.16-4.84-17.13,8.55-8.5,14.32,5.64,3.77,12.7,6.21,20.18,3.26Z"/><path class="cls-2" d="M947.64,489.52A59.39,59.39,0,0,0,936,476.3c-6.41-5.24-14.52,4.19-8.45,9.79,5.61,5.14,12.59,9.46,19.81,9.11Z"/><path class="cls-2" d="M945.21,466.52a87.86,87.86,0,0,0-13.14-17c-5-4.84-12.44,2.54-7.75,7.65C929.74,463,937,469,945.82,471.67Z"/><path class="cls-2" d="M940.51,439.48a78,78,0,0,0-10.49-13c-5.06-4.95-12.68,2.5-7.83,7.64,5.16,5.48,11.82,10.6,19.64,12.34Z"/><path class="cls-2" d="M936.4,414.25a122.61,122.61,0,0,0-10.08-12c-4.05-4.18-10.52,1.69-6.7,6.09,4.48,5.17,10.23,9.75,16.85,10.49Z"/><path class="cls-2" d="M932.14,390.85a125.65,125.65,0,0,0-9.69-15.94c-3-4.14-9.34.29-6.49,4.55,3.74,5.59,8.93,11.12,15.75,13.79Z"/><path class="cls-2" d="M928.62,359.74s-2.39-4.05-5.81-8.77c-3.16-4.35-9.82.14-6.89,4.65,3.29,5,7.42,9.34,12.22,10.2Z"/><path class="cls-2" d="M927,339.13l-3-15.16c-.81-4-6.78-3.05-6.3,1,1.09,8.1,3.87,16.24,10,21.59Z"/><path class="cls-2" d="M928.75,296.05h0a3,3,0,0,0-5.68,1.62,77.44,77.44,0,0,0,3.06,12.4Z"/><path class="cls-2" d="M917.92,636.2a16,16,0,0,1,15.85,3.41c7.75,7.23-2.73,19.37-11,12.7a32,32,0,0,1-8-10.22Z"/><path class="cls-2" d="M930.3,610.25s10.19-2.46,18.07,4.92c8.36,7.82-3.19,20.64-12,13.31a37.22,37.22,0,0,1-9.13-12.12Z"/><path class="cls-2" d="M937.75,587.93a24,24,0,0,1,18.4-4.09c9.69,1.94,7.28,16.6-2.48,15.35a36.31,36.31,0,0,1-16.74-7Z"/><path class="cls-2" d="M944.61,562.05a25,25,0,0,1,16.58-4.95c10.13.88,9,16.27-1.1,15.63a27.49,27.49,0,0,1-16.27-6.63Z"/><path class="cls-2" d="M947,540.39s5.38-8.29,14-11.68c9.52-3.77,15.63,10.5,6.38,14.89-5.81,2.74-12.81,4.12-20.25,1.11Z"/><path class="cls-2" d="M947.3,513.09s5.43-8.53,14.12-11.78c9.69-3.64,15.88,10.7,6.57,15.3-6.09,3-13.41,4.5-20.44.6Z"/><path class="cls-2" d="M945.48,489.27a59.32,59.32,0,0,1,8.52-15.4c5.14-6.5,15.12,1,10.36,7.75-4.38,6.22-10.23,11.93-17.44,13.14Z"/><path class="cls-2" d="M944.73,466.49a86.68,86.68,0,0,1,7.87-20c3.47-6,12.65-1,9.53,5.19-3.57,7.12-8.91,14.91-16.6,19.9Z"/><path class="cls-2" d="M939.11,438.22a78.49,78.49,0,0,1,8-15.27c4-5.82,12.84-.12,9.19,5.89-4,6.54-9.57,13.13-17.08,16.46Z"/><path class="cls-2" d="M934.64,414.11A124.75,124.75,0,0,1,938.83,399c1.94-5.49,10.28-2.84,8.63,2.75-1.93,6.57-5.26,13.13-11,16.55Z"/><path class="cls-2" d="M931.53,390.39a125,125,0,0,1,5.81-17.73c2-4.73,9.18-1.85,7.36,2.95-2.36,6.3-6.16,12.86-12.18,17Z"/><path class="cls-2" d="M926.87,361.87s.91-4.62,2.57-10.2c1.53-5.16,9.32-3.13,8,2.09-1.42,5.81-3.88,11.28-8.14,13.68Z"/><path class="cls-2" d="M928,338.1l5.26-14.52c1.4-3.88,7.21-2,6.08,1.93-2.28,7.85-6.23,15.5-13.06,19.86Z"/><path class="cls-2" d="M934.52,297.57s.83-.66,2.09-1.7c2.56-2.13,5.91,1.59,3.49,3.88a49.37,49.37,0,0,1-14.32,9.08Z"/><path class="cls-2" d="M934.17,289.15a190.56,190.56,0,0,1,10.51-18.71,1.93,1.93,0,0,0-3.13-2.22c-3.1,4.24-6.15,10.45-8.45,19.57Z"/><path class="cls-3" d="M928.17,366.06l1.12-.12c-4.84-45.14-2.8-73,5.67-78.38l-.61-1C925.38,292.34,923.25,319.81,928.17,366.06Z"/><path class="cls-3" d="M944.83,472.8l1.67-.25c-.63-4.18-1.35-8.42-2.17-12.59-7.05-36.65-12.53-70.52-15.27-96.25l-1.23-1c2.75,25.77,7.75,60.82,14.85,97.51C943.47,464.4,944.2,468.64,944.83,472.8Z"/><path class="cls-3" d="M866.37,701c.25-.21,26.06-20,48.71-57.81a244,244,0,0,0,28.67-71.47c7.16-31.49,7.37-68.17,2.2-102.51l-1.51,1.21c11.62,77.08-10.55,136.93-31.24,171.53-22.43,37.52-47.93,57-48.2,57.25Z"/><ellipse class="cls-2" cx="205.64" cy="688.42" rx="64.46" ry="12.4"/><ellipse class="cls-4" cx="204.55" cy="683.15" rx="7.51" ry="9.82"/><ellipse class="cls-4" cx="204.55" cy="671.14" rx="7.51" ry="9.82"/><ellipse class="cls-4" cx="204.55" cy="659.13" rx="7.51" ry="9.82"/><ellipse class="cls-4" cx="204.55" cy="647.12" rx="7.51" ry="9.82"/><ellipse class="cls-4" cx="204.55" cy="635.11" rx="7.51" ry="9.82"/><ellipse class="cls-4" cx="204.55" cy="623.11" rx="7.51" ry="9.82"/><ellipse class="cls-4" cx="204.55" cy="611.1" rx="7.51" ry="9.82"/><path class="cls-2" d="M232.64,528.92a34.61,34.61,0,0,0,2.8-4.11l-19.72-3.24,21.31.16a36,36,0,0,0,.69-28.48L209.1,508.09l26.39-19.37a36,36,0,1,0-62.31,35.89,35.37,35.37,0,0,0,2.93,4.33A36.17,36.17,0,0,0,172,535.5l25.6,13.3-27.28-9.16a36,36,0,0,0,5.81,33.75,36,36,0,1,0,56.51,0,35.92,35.92,0,0,0,0-44.45Z"/><path class="cls-5" d="M168.44,551.15a35.82,35.82,0,0,0,7.69,22.22,36,36,0,1,0,56.51,0C237.47,567.26,168.44,547.11,168.44,551.15Z"/><path class="cls-6" d="M242.4,265.39V693.24a14.93,14.93,0,0,0,14.93,14.94h614a14.94,14.94,0,0,0,14.94-14.94V265.39Z"/><rect class="cls-5" x="293.35" y="303.69" width="153.91" height="90.34" rx="8.38"/><rect class="cls-5" x="487.37" y="303.69" width="153.91" height="90.34" rx="8.38"/><rect class="cls-7" x="295.51" y="304.96" width="149.58" height="87.8" rx="8.38"/><rect class="cls-8" x="683.55" y="304.96" width="149.58" height="87.8" rx="8.38"/><rect class="cls-7" x="489.53" y="304.96" width="149.58" height="87.8" rx="8.38"/><rect class="cls-8" x="295.51" y="431.78" width="149.58" height="87.8" rx="8.38"/><rect class="cls-8" x="683.55" y="431.78" width="149.58" height="87.8" rx="8.38"/><rect class="cls-8" x="489.53" y="431.78" width="149.58" height="87.8" rx="8.38"/><rect class="cls-8" x="295.51" y="558.6" width="149.58" height="87.8" rx="8.38"/><rect class="cls-8" x="683.55" y="558.61" width="149.58" height="87.8" rx="8.38"/><rect class="cls-8" x="489.53" y="558.61" width="149.58" height="87.8" rx="8.38"/><path class="cls-2" d="M242.4,189.83v77.73H886.25V189.83a15,15,0,0,0-14.93-15h-614a14.93,14.93,0,0,0-14.93,14.94Zm159.33,23a11.92,11.92,0,1,1,11.93-11.92h0A11.92,11.92,0,0,1,401.73,212.82Zm325.18,0a11.92,11.92,0,1,1,11.92-11.92h0a11.92,11.92,0,0,1-11.92,11.92h0Z"/><path class="cls-5" d="M401.73,186.81a14.09,14.09,0,1,0,14.09,14.1h0a14.08,14.08,0,0,0-14.08-14.09Zm0,26a11.92,11.92,0,1,1,11.93-11.92h0A11.92,11.92,0,0,1,401.73,212.82Z"/><path class="cls-5" d="M726.89,186.81A14.09,14.09,0,1,0,741,200.9h0A14.09,14.09,0,0,0,726.89,186.81Zm0,26a11.92,11.92,0,1,1,11.92-11.92h0A11.92,11.92,0,0,1,726.89,212.82Z"/><circle class="cls-1" cx="1018.39" cy="419.11" r="14.79"/><circle class="cls-1" cx="1071.3" cy="353.15" r="24.8"/><circle class="cls-1" cx="1038.47" cy="473.47" r="24.8"/><circle class="cls-1" cx="52.82" cy="347.06" r="35.11"/><path class="cls-9" d="M914.31,729.48a31,31,0,0,0-7.19-4,1.38,1.38,0,0,0-.63-.17,109.93,109.93,0,0,1-14.82-12.77c1-.77,1.86-1.53,2.81-2.27-5.81-2.77-9-9.12-12.18-14.84A146.34,146.34,0,0,0,850,655.16c-.32-1.23-2.19-1-3.19-1.76a2.55,2.55,0,0,1-.7-2.47c.15-.89.56-1.71.78-2.59.53-2,.07-4.19-.16-6.29s-.14-4.45,1.26-6c.44-.51,1-.91,1.45-1.43a5.46,5.46,0,0,0,1-4.35,15.55,15.55,0,0,0-1-4.41q7.13-19.37,14.23-38.81c3.32-9,6.67-18.29,7-27.93.27-7.75-1.72-15.8-6.41-21.72q1.28-.3,2.55-.66c-5.54-7.34-6.15-17.07-6.29-26.32q-.12-6.91-.48-13.84a51.16,51.16,0,0,0,4.91,1.88l1.55.47a52.75,52.75,0,0,0,7.68,1.65c1.14.17,2.3.29,3.46.37h0q-2.5-6.26-5-12.53a17,17,0,0,1-1.55-5.88h0v-.39a3.3,3.3,0,0,1,0-.7,7.69,7.69,0,0,1,.37-1.63c.09-.26.19-.51.3-.76a14.23,14.23,0,0,1,1.24-2.18c.35-.53.74-1.05,1.13-1.57a21.32,21.32,0,0,0,3.47-5.63,10.85,10.85,0,0,0,.54-3.2,15.89,15.89,0,0,0-.29-3.3c-.14-.71-.31-1.44-.51-2.14h0c-.12-.43-.26-.87-.39-1.3l-.12-.34c-.11-.33-.21-.65-.33-1l-.12-.33c-.12-.35-.25-.69-.38-1l-.08-.2c-1.85-4.76-4.31-9.29-5.81-14.18a36.28,36.28,0,0,1-1-4c-.07-.34-.12-.69-.18-1s-.08-.58-.12-.87-.09-.68-.13-1l-.09-1c0-.31,0-.62-.06-1,0-.59-.06-1.18-.07-1.77v-2.69c0-.45.07-.89.11-1.33a2.21,2.21,0,0,1,.06-.63c.07-.64.16-1.29.27-1.94h0c.09-.57.2-1.15.31-1.73a22.52,22.52,0,0,0,.55-4.84,4.67,4.67,0,0,0-.07-1c-.07-.34-.08-.52-.13-.78v-.23a2.44,2.44,0,0,0-.12-.52.76.76,0,0,0-.08-.24c0-.08-.11-.34-.16-.51l-.08-.22c0-.08-.14-.35-.22-.51l-.06-.18-.31-.62h0a14.09,14.09,0,0,0-1.3-2h0c-3.19-4.19-8.49-7.37-11.4-12a26.87,26.87,0,0,1-3.27-9.69c-.14-.78-.27-1.55-.4-2.32s-.25-1.52-.39-2.27c-.09-.47-.17-1-.27-1.4l-.06-.3c-.08-.37-.15-.74-.24-1.11l-.06-.26c-.09-.39-.17-.78-.27-1.17l-.06-.2c-.1-.41-.2-.81-.31-1.22v-.14c-.12-.43-.24-.86-.37-1.28v-.09c-.13-.45-.27-.88-.41-1.32h0c-.15-.44-.3-.9-.47-1.34h0c-.17-.46-.34-.91-.52-1.36h0a36.17,36.17,0,0,0-4.9-8.72c-4.44-5.69-11.3-9.78-18.41-9.51-3.81.15-7.47,1.48-11.07,2.81l-9.33,3.44,2.61-1.2a22.25,22.25,0,0,0-7.93,1.69c-2.45,1.2-4.53,3.56-4.6,6.31-.05,1.6.58,3.18.37,4.77-.34,2.63-2.75,4.41-4,6.74a8.75,8.75,0,0,0-1,4.55v1.08c-3.87-1.68-7.74-3.44-11.62-5.32-6.4-3.14-12.88-6.84-16.87-12.81-1.28-1.94-2.27-4-3.54-5.95a46.31,46.31,0,0,0-4.84-5.81l-11.89-12.86c-.91,1.71.27,3.74,1.19,5.44a24.05,24.05,0,0,1,2.2,5.68,2.71,2.71,0,0,1-.06,2,4,4,0,0,1-1.63,1.16,5.8,5.8,0,0,0-2.45,6.65,7.35,7.35,0,0,0,5.49,4.78,9.88,9.88,0,0,1,2.45.61c1.44.7,2.11,2.35,3.14,3.58,1.87,2.25,4.84,3.09,7.68,3.83,4.4,5.07,9,9.93,13.37,15,6.65,7.68,13.46,15.5,22.14,20.69.9.54,1.82,1,2.75,1.51a1.44,1.44,0,0,1,0,.46,5.28,5.28,0,0,0,.42,3.39c.77,1.24,2.37,1.6,3.8,1.86l6.56,1.17a19.44,19.44,0,0,1-.32,2.53c-.08.52-.19,1-.29,1.54h0l-.11.65v.1a1.83,1.83,0,0,1-.07.53c-.07.19,0,.13,0,.19v1.29c.22,2.57,1.94,4.7,3.65,6.67l.92,1.11a15.54,15.54,0,0,0-3,6.28,21.37,21.37,0,0,0-.43,4.37,7.49,7.49,0,0,0-1.93,3,13.93,13.93,0,0,0-.51,4.89v1.94a16.36,16.36,0,0,0,1.12,6.78c.09.17.19.33.28.49-1.46,2.85-3.88,5.07-5.61,7.75a16.82,16.82,0,0,0,1.54,19.26c1.33,1.53,3,3,3.18,5a18.17,18.17,0,0,1-.27,2.75c-.15,2.19.86,4.26,1.4,6.38a6.65,6.65,0,0,1-.53,5.29,7.74,7.74,0,0,0-1.33,5.07c.49,2.75-.64,5.49-.83,8.27-.09,1.19,0,2.4-.11,3.59a20.4,20.4,0,0,1-.71,3.37,1.81,1.81,0,0,1-.09.37c-2.4,1-4.77,2.15-7.06,3.42a6.21,6.21,0,0,0-2.9,2.67,6.87,6.87,0,0,0-.16,3.68l2.07,14.36-.36-.16q.24,3.52.5,7.08c.13,1.79.29,3.69,1.36,5.13a13.23,13.23,0,0,1,1.46,1.87c.81,1.64-.15,3.56-.87,5.25s-1,4.07.61,5a12.68,12.68,0,0,0,2.64,1.42c-1.93,8.08-.15,16.54,1.65,24.65q2.06,9.3,4.14,18.58a45.58,45.58,0,0,1,.91,8v1.16a44.62,44.62,0,0,0,1.93,10.87c2.15,7.25.09,15.94.77,23.84a71.48,71.48,0,0,0,2.26,11.22c4.68,18.56,8.86,36.75,10.47,55.84a14,14,0,0,0,6.7,4.67c-.19,2.35.07,5,0,6.4a11.08,11.08,0,0,1-.52,3.33,8,8,0,0,1-5.07,4.31c-.68.23-1.37.42-2.06.58l.77-.66a17.28,17.28,0,0,0-12.89,2.27,5.12,5.12,0,0,0-2.55,3,4.85,4.85,0,0,0,.89,3.48,15.86,15.86,0,0,0,9,6.36,46.88,46.88,0,0,0,11,1.54l6.83.4a1.87,1.87,0,0,0,.45,2.43,4.73,4.73,0,0,0,2.51.91,31.73,31.73,0,0,0,8.43.13,3.31,3.31,0,0,0,1.94-.7,1.26,1.26,0,0,0,.09-1.77l-.09-.08a2.05,2.05,0,0,0,1.86-1.36,5.35,5.35,0,0,0,.25-2.45c-.18-3.18-.46-7.81-2.12-10.65a2.71,2.71,0,0,0-3-1.32,116.73,116.73,0,0,1-1.94-17.18,41.24,41.24,0,0,0,5-2.25c-4.76-7.68-4.84-17.44-3.39-26.37a79,79,0,0,0,1.27-8.53c.32-5.71-.54-12.18-3.71-16.91A60.42,60.42,0,0,1,859,698.3c6.69,8.71,10.77,19.27,19,26.54,1.07-1.06,2.16-2.1,3.27-3.14q2.6,4.39,4.91,9a33.94,33.94,0,0,1,2.85,7.08,32.94,32.94,0,0,1,.26,11.42c-.23,2-.5,4-.82,6a16.48,16.48,0,0,1-.59,2.52,1.85,1.85,0,0,0-.19-.76c-.51-.9-1.94-.49-2.71.13a12,12,0,0,0-3.34,3.88,4.19,4.19,0,0,0-.6,2.47,3.65,3.65,0,0,0,1.93,2.42c3.6,2.1,8.11.58,12-1a14.74,14.74,0,0,0,3-1.52c1.94-1.4,3-3.69,4.92-5.05a27,27,0,0,0,3-1.88c1.79-1.64,1.94-4.4,3.25-6.47,2.17-3.57,7-4.49,8.92-8.28C920.19,737.5,917.62,732.22,914.31,729.48Z"/><path class="cls-10" d="M830.8,746.53a10.6,10.6,0,0,1-.53,3.3c-.81,2.12-2.91,3.5-5.06,4.25s-4.43,1-6.62,1.62A5.74,5.74,0,0,0,816,757c-1.93,1.94-.77,5.43,1.49,6.87s5.16,1.39,7.85,1.21a103.38,103.38,0,0,0,17-2.41c2-.48,4.37-1.41,4.69-3.45a5.53,5.53,0,0,0-.16-1.94,115.28,115.28,0,0,1-2.18-21c0-.47-11.23-.77-12.28-.09C830,737.72,830.93,744.15,830.8,746.53Z"/><path class="cls-10" d="M880.9,721.86q2.79,4.62,5.24,9.43a33.13,33.13,0,0,1,2.85,7,32.09,32.09,0,0,1,.26,11.27c-.23,2-.5,4-.83,5.93s-.84,4.14-2.49,5.25a5.72,5.72,0,0,0,4.94.44,14.14,14.14,0,0,0,4.35-2.67c8.3-6.84,14.53-16.79,14.84-27.55a4.47,4.47,0,0,0-.46-2.44,4.87,4.87,0,0,0-1.45-1.3A111.75,111.75,0,0,1,891,712.78a2.07,2.07,0,0,0-1.26-.81,2.14,2.14,0,0,0-1.12.32c-3.19,1.6-8.51,3.88-9.84,7.51A5,5,0,0,1,880.9,721.86Z"/><path class="cls-4" d="M842.16,757.78c-7,2.9-14.53,4-22.08,5a3,3,0,0,1-2.64-.49,2,2,0,0,1-.18-2.26,5.9,5.9,0,0,1,1.62-1.79l5-4.19a17.43,17.43,0,0,0-12.73,2.19,5.06,5.06,0,0,0-2.54,2.91,4.73,4.73,0,0,0,.89,3.43,15.85,15.85,0,0,0,9,6.28,47.3,47.3,0,0,0,11,1.52l6.78.39a1.82,1.82,0,0,0,.45,2.4,4.81,4.81,0,0,0,2.52.92,32.15,32.15,0,0,0,8.43.12,3.22,3.22,0,0,0,1.93-.69,1.21,1.21,0,0,0,.1-1.72l-.1-.1a2,2,0,0,0,1.86-1.35,5.63,5.63,0,0,0,.26-2.41c-.19-3.14-.47-7.75-2.13-10.49S844.5,756.81,842.16,757.78Z"/><path class="cls-4" d="M914.13,730.09a31.34,31.34,0,0,0-7.18-4,.87.87,0,0,0-1.2.16,1,1,0,0,0-.1.17,73.7,73.7,0,0,0-10.59,20.41c-1.38,4.17-2.48,8.6-5.29,12-.37.45-1,.91-1.47.64-.73-.36-.28-1.54-.69-2.24-.5-.89-1.88-.49-2.7.12a11.64,11.64,0,0,0-3.33,3.88,3.79,3.79,0,0,0-.6,2.43,3.55,3.55,0,0,0,1.89,2.38c3.59,2.08,8.1.58,12-1a13.65,13.65,0,0,0,3-1.5c1.94-1.36,3-3.64,4.92-5a29.65,29.65,0,0,0,3-1.86c1.78-1.62,1.93-4.34,3.23-6.39,2.17-3.52,7-4.43,8.92-8.17C920,738,917.45,732.78,914.13,730.09Z"/><path class="cls-4" d="M860.07,536.6c7.62,5.72,10.81,15.88,10.48,25.39s-3.69,18.64-7,27.56l-14.22,38.29a15.56,15.56,0,0,1,1,4.36,5.37,5.37,0,0,1-1,4.28c-.44.51-1,.91-1.45,1.41-1.4,1.55-1.48,3.88-1.26,5.94s.7,4.19.17,6.21c-.23.86-.63,1.67-.79,2.55a2.52,2.52,0,0,0,.71,2.44c1,.77,2.9.52,3.18,1.74a144.83,144.83,0,0,1,32.26,39.71c3.14,5.65,6.31,11.91,12.17,14.64a211.89,211.89,0,0,0-16.4,14.42c-8.19-7.17-12.27-17.6-18.95-26.15a60,60,0,0,0-15.09-13.49c3.17,4.66,4,11.05,3.71,16.68a77.22,77.22,0,0,1-1.27,8.41c-1.5,8.82-1.37,18.41,3.39,26-5.08,2.64-10.91,4.59-16.57,3.81a14.09,14.09,0,0,1-9-5.16c-1.61-18.83-5.81-36.8-10.45-55.08a67.4,67.4,0,0,1-2.26-11.15c-.68-7.75,1.39-16.37-.77-23.52a43.75,43.75,0,0,1-1.94-10.71v-1.15a44.25,44.25,0,0,0-.91-7.87l-4.13-18.32c-1.8-8-3.6-16.36-1.65-24.34a13,13,0,0,1-2.64-1.38c-1.58-.9-1.33-3.26-.61-4.92s1.68-3.56.87-5.18a12.51,12.51,0,0,0-1.46-1.85c-1.06-1.42-1.23-3.29-1.36-5.05l-.5-7a13.74,13.74,0,0,1,6.9,6c-3.82-5.91-1.94-14.34.88-20.79a9.47,9.47,0,0,1,8.89-7C828.5,533.7,847.46,527.12,860.07,536.6Z"/><path class="cls-5" d="M853,576.38s-7.63,5.09-7.63,8.91-1.94,38.16-1.94,38.16v24.22s1.27,12.72,0,15.9,0,17.81,0,19.72,1.94-19.72,1.94-19.72V640.63l1.94-52.17Z"/><path class="cls-10" d="M810.42,400,806,398.22c-9.09-3.64-18.18-7.3-27-11.57-6.39-3.11-12.87-6.78-16.85-12.64-1.28-1.94-2.27-4-3.54-5.88a47.41,47.41,0,0,0-4.84-5.74L741.89,349.7c-.91,1.69.26,3.69,1.19,5.37a23,23,0,0,1,2.19,5.6,2.6,2.6,0,0,1-.06,1.94,3.78,3.78,0,0,1-1.62,1.14,5.68,5.68,0,0,0-2.45,6.56,7.32,7.32,0,0,0,5.48,4.73,10.31,10.31,0,0,1,2.45.59c1.43.71,2.11,2.32,3.14,3.53,1.87,2.22,4.84,3.07,7.67,3.78,4.4,5,9,9.8,13.36,14.81,6.64,7.58,13.44,15.29,22.12,20.42a32.47,32.47,0,0,0,10,4A161.09,161.09,0,0,1,810.42,400Z"/><path class="cls-11" d="M810.42,400,806,398.22c-9.09-3.64-18.18-7.3-27-11.57-6.39-3.11-12.87-6.78-16.85-12.64-1.28-1.94-2.27-4-3.54-5.88a47.41,47.41,0,0,0-4.84-5.74L741.89,349.7c-.91,1.69.26,3.69,1.19,5.37a23,23,0,0,1,2.19,5.6,2.6,2.6,0,0,1-.06,1.94,3.78,3.78,0,0,1-1.62,1.14,5.68,5.68,0,0,0-2.45,6.56,7.32,7.32,0,0,0,5.48,4.73,10.31,10.31,0,0,1,2.45.59c1.43.71,2.11,2.32,3.14,3.53,1.87,2.22,4.84,3.07,7.67,3.78,4.4,5,9,9.8,13.36,14.81,6.64,7.58,13.44,15.29,22.12,20.42a32.47,32.47,0,0,0,10,4A161.09,161.09,0,0,1,810.42,400Z"/><path class="cls-7" d="M802.29,425.24c-1.43-.25-3-.6-3.8-1.82a5.13,5.13,0,0,1-.42-3.34,93.58,93.58,0,0,1,4.85-21.41c2.16,4,6.41,6.34,10.44,8.44a77.5,77.5,0,0,0,11.21,5.11c-1-.31-3.34,14.59-4.67,15.5-1.69,1.18-5.76-.42-7.63-.73Z"/><circle class="cls-10" cx="812.6" cy="400.48" r="20.36"/><path class="cls-12" d="M808.47,417.34s13.35,11.45,7.63,19.08-8.91,12.73-1.28,13.37,33.08-12.73,33.08-12.73S824.36,418,828.18,406.53,808.47,417.34,808.47,417.34Z"/><path class="cls-7" d="M821.28,435.26A15.79,15.79,0,0,0,809.59,447c-1.5,6.85,1.69,14.53-1.32,20.84-1.41,3-4,5.25-5.81,8.07a16.46,16.46,0,0,0,1.53,19c1.33,1.52,3,3,3.19,5a17.78,17.78,0,0,1-.27,2.72c-.16,2.16.85,4.21,1.39,6.3a6.38,6.38,0,0,1-.53,5.21,7.56,7.56,0,0,0-1.32,5c.49,2.71-.65,5.41-.84,8.16-.09,1.18,0,2.36-.11,3.54a20.6,20.6,0,0,1-.69,3.32l-1.71,6.29a69.8,69.8,0,0,0,29.06,5.19c9-.17,17.77-2,26.53-3.87,2.66-.57,5.33-1.13,7.95-1.85-5.54-7.25-6.13-16.85-6.28-26a390,390,0,0,0-3.4-45.43c2.68-5.07,3.87-10.71,5-16.34a27.21,27.21,0,0,0,.62-6.91c-.27-4.84-2.49-9.44-4.67-13.83-2-4-4.16-8.23-8.61-10a6.83,6.83,0,0,0-6.61.73c-3.36,2.54-2.36,6.92-3.23,10.65-1.13,4.85-5.6,8.33-10.35,9.69a33.87,33.87,0,0,1-10.89,1,1.94,1.94,0,0,1-1.82-2.05,1.91,1.91,0,0,1,.45-1.13C818.38,438.66,819.94,436.9,821.28,435.26Z"/><path class="cls-10" d="M837.05,514c-7.54,6.16-15.16,12.38-23.86,16.74-5.1,2.55-10.53,4.44-15.49,7.19a6.22,6.22,0,0,0-2.91,2.64,6.5,6.5,0,0,0-.16,3.63l2.21,15.23c.61,4.12,4.58,6.78,7.75,9.41-.17-1.38-.45-2.46.21-3.69a10.2,10.2,0,0,1,.74-1.11c1.36-2.06,1.41-4.72,1.08-7.16s-1-4.85-.85-7.34a2.44,2.44,0,0,1,1-2.14c10.82-5.2,22.47-9.19,33.41-14.13a35.34,35.34,0,0,0,8.11-4.6,12.45,12.45,0,0,0,4.7-7.81,1.58,1.58,0,0,0-.19-1.2,1.6,1.6,0,0,0-.82-.48C847.1,517.36,841.93,515.72,837.05,514Z"/><path class="cls-5" d="M816.12,450.07c-3.74.63-7.67,2.56-8.94,6.15a13.65,13.65,0,0,0-.51,4.84,15.86,15.86,0,0,0,1.14,6.71,19.66,19.66,0,0,0,2.26,3.3c8.95,11.47,13.45,25.87,22.17,37.52.77,1,2.19,2.36,1.75,3.58a8.2,8.2,0,0,0-.42,1,2,2,0,0,0,.64,1.7,4.09,4.09,0,0,1,1.06,1.54c.16.61-.24,1.4-.87,1.36,1,3.23,4.25,5.12,7.29,6.65,5.06,2.55,10.66,4.55,16.28,4,1.06-4.23,2.53-9,1.94-13.33a34.78,34.78,0,0,0-3.24-9.45l-3.79-8.27c-3.23-7.06-6.48-14.17-11-20.5a31.07,31.07,0,0,1-4.06-6.54c-1.15-3-4.32-5.09-6.23-7.66-2.85-3.87-5.81-7.75-9.63-10.55C820.45,450.9,818,449.76,816.12,450.07Z"/><path class="cls-7" d="M816.12,448.16c-3.74.63-7.67,2.57-8.94,6.14a13.65,13.65,0,0,0-.51,4.84,15.91,15.91,0,0,0,1.14,6.72,20,20,0,0,0,2.26,3.29c8.95,11.47,13.45,25.87,22.17,37.52.77,1,2.19,2.37,1.75,3.58a8.35,8.35,0,0,0-.42,1,1.93,1.93,0,0,0,.64,1.69,4.09,4.09,0,0,1,1.06,1.54c.16.61-.24,1.41-.87,1.36,1,3.23,4.25,5.12,7.29,6.65,5.06,2.55,10.66,4.55,16.28,4,1.06-4.23,2.53-9,1.94-13.33a34.78,34.78,0,0,0-3.24-9.45l-3.79-8.27c-3.23-7.06-6.48-14.17-11-20.5a30.89,30.89,0,0,1-4.06-6.55c-1.15-3-4.32-5.08-6.23-7.65-2.85-3.87-5.81-7.75-9.63-10.55C820.45,449,818,447.85,816.12,448.16Z"/><path class="cls-4" d="M807.59,367a22.39,22.39,0,0,0-7.93,1.66c-2.44,1.18-4.52,3.51-4.6,6.22,0,1.58.58,3.15.38,4.71-.34,2.6-2.75,4.35-4,6.64-2.17,4-.49,9.07,2.32,12.6s6.62,6.23,9.5,9.74a25.14,25.14,0,0,1,5.25,20.26,16.41,16.41,0,0,0-.51,4.24c.22,2.53,1.94,4.64,3.64,6.57a303.5,303.5,0,0,1,23,30.57,84.49,84.49,0,0,1,5.66,9.69c1.64,3.47,2.9,7.17,5.19,10.24a27.18,27.18,0,0,0,7.62,6.54,53.86,53.86,0,0,0,24.41,7.87l-5-12.37c-.88-2.2-1.79-4.51-1.5-6.87.55-4.45,5.05-7.38,6.51-11.62,1-2.73.53-5.74-.26-8.52-1.77-6.27-5.29-11.91-7.19-18.14A36.73,36.73,0,0,1,869,430.21c.41-2.48,1.09-5,.78-7.46-.92-7.57-9.8-11.2-13.91-17.62-2.65-4.12-3.17-9.21-4.06-14-1.29-7-3.58-14.08-8-19.69s-11.27-9.69-18.4-9.39c-3.82.15-7.47,1.47-11.06,2.77l-9.34,3.4"/><g class="cls-13"><path d="M849.26,382.85c.81,4.35,1.31,8.92,3.35,12.8-.28-1.51-.52-3-.8-4.52a56.16,56.16,0,0,0-3.12-11.1C848.94,381,849.1,381.91,849.26,382.85Z"/><path d="M866.45,422a36.91,36.91,0,0,0,1.08,16.87,44.73,44.73,0,0,0,1.59,4.36,36.65,36.65,0,0,1-.12-13c.41-2.48,1.09-5,.78-7.46a11.7,11.7,0,0,0-2.52-5.81C867.12,418.65,866.73,420.31,866.45,422Z"/><path d="M877.27,465.24a48.09,48.09,0,0,0-1.94-5.35,11.81,11.81,0,0,1-.37,5.6c-1.46,4.23-6,7.17-6.51,11.62-.29,2.35.61,4.67,1.5,6.87.33.82.66,1.65,1,2.48a9.73,9.73,0,0,1,0-1.08c.56-4.45,5.05-7.38,6.51-11.62C878.48,471,878.06,468,877.27,465.24Z"/><path d="M850.56,488.47a27.32,27.32,0,0,1-7.62-6.54c-2.3-3.08-3.56-6.79-5.2-10.24a80.87,80.87,0,0,0-5.66-9.69,305,305,0,0,0-23-30.58c-.3-.34-.6-.69-.89-1a10.09,10.09,0,0,0-.22,2.74c.22,2.53,1.94,4.64,3.64,6.57a303.5,303.5,0,0,1,23,30.57,84.49,84.49,0,0,1,5.66,9.69c1.64,3.47,2.9,7.17,5.19,10.24a27.18,27.18,0,0,0,7.62,6.54,53.86,53.86,0,0,0,24.41,7.87l-3.39-8.33A53.85,53.85,0,0,1,850.56,488.47Z"/><path d="M800.73,400.38c-2.91-3.51-6.7-6.17-9.5-9.74-.26-.33-.5-.67-.74-1a14.09,14.09,0,0,0,3.28,9.28c2.81,3.58,6.62,6.24,9.5,9.75a23.61,23.61,0,0,1,2.91,4.42A25.21,25.21,0,0,0,800.73,400.38Z"/></g><path class="cls-2" d="M422.63,301l-7-7.06a3.72,3.72,0,0,0-5.27,0l0,0L366.2,337.58l-18.65-18.79a3.72,3.72,0,0,0-5.26,0l-7.1,7a3.77,3.77,0,0,0,0,5.3l28.33,28.55a3.76,3.76,0,0,0,5.29,0l53.82-53.41a3.74,3.74,0,0,0,0-5.28Z"/><path class="cls-2" d="M617.32,301l-7-7.06a3.73,3.73,0,0,0-5.28,0l0,0-44.1,43.69-18.66-18.79a3.72,3.72,0,0,0-5.26,0l-7.1,7a3.77,3.77,0,0,0,0,5.3l28.33,28.55a3.76,3.76,0,0,0,5.29,0l53.82-53.41a3.74,3.74,0,0,0,0-5.28Z"/></svg>