<svg id="a50fd755-b70f-4e5f-b336-9e50a578b62c" xmlns="http://www.w3.org/2000/svg" xmlns:xlink="http://www.w3.org/1999/xlink" viewBox="0 0 1128.33 786.75"><defs><style>.cls-1,.cls-9{fill:#0bc4d2;}.cls-1,.cls-4,.cls-7{opacity:0.1;}.cls-1,.cls-4{isolation:isolate;}.cls-2{fill:url(#linear-gradient);}.cls-3{fill:#fff;}.cls-5{fill:#e77185;}.cls-6{fill:#3f3d56;}.cls-8{fill:#fbbebe;}.cls-10{fill:url(#linear-gradient-2);}.cls-11{fill:#cf6f80;}.cls-12{fill:#512e4e;}.cls-13{fill:#535461;}.cls-14{fill:#9d9cb5;}.cls-15{fill:none;stroke:#535461;stroke-miterlimit:10;stroke-width:2px;}</style><linearGradient id="linear-gradient" x1="474.01" y1="14.27" x2="474.01" y2="531.46" gradientTransform="matrix(1, 0, 0, -1, -15.95, 769.44)" gradientUnits="userSpaceOnUse"><stop offset="0" stop-color="gray" stop-opacity="0.25"/><stop offset="0.54" stop-color="gray" stop-opacity="0.12"/><stop offset="1" stop-color="gray" stop-opacity="0.1"/></linearGradient><linearGradient id="linear-gradient-2" x1="829.34" y1="-8.41" x2="829.34" y2="542.44" xlink:href="#linear-gradient"/></defs><title>doctors</title><path class="cls-1" d="M109.71,309.9h90.85V433.75H116.35c-.22,1.28-.43,2.55-.67,3.83h84.88v99.85a1.08,1.08,0,0,1-.42-.16q-3.58-1.42-7.17-3c-.51-.24-1-.48-1.53-.7q-3.57-1.69-7.16-3.58c-.83-.44-1.66-.9-2.48-1.36a149.27,149.27,0,0,1-35.72-27.81c-.31-.3-.6-.62-.89-.9-1.45-1.57-2.88-3.17-4.26-4.8-.52-.59-1-1.2-1.53-1.79-1.63-2-3.2-4-4.72-6.11-.24-.31-.45-.62-.68-.9a132,132,0,0,1-15.39-27.84c-.13-.29-.25-.62-.36-.89-1.24-3.14-2.36-6.31-3.32-9.56-.42-1.35-.82-2.68-1.16-4.09-.12-.4-.22-.81-.33-1.21-5-19.83-5.61-40.44-5.61-61V374.6q.11-12.56.29-25.09c0-2.15.09-4.31.14-6.47q.18-8.24.53-16.49c.06-1.52.13-3.06.21-4.57,0-.88.08-1.75.13-2.63C109.29,316.18,109.49,313,109.71,309.9Z"/><path class="cls-1" d="M200.56,172H150.72a379,379,0,0,1,26.51-36.48c7.41-9.09,15.22-17.95,23.33-26.49Z"/><path class="cls-1" d="M200.56,175.83V306.07H110c0-.37.06-.76.09-1.13.08-1,.16-2.05.25-3.08.09-1.2.21-2.4.33-3.58s.23-2.62.37-3.92.26-2.61.4-3.91.29-2.6.45-3.88.31-2.6.49-3.89c.13-1.07.26-2.14.42-3.21.2-1.52.42-3,.64-4.53a3.71,3.71,0,0,1,.11-.68,311,311,0,0,1,6.66-32.7,242.64,242.64,0,0,1,11.23-33.12,249.88,249.88,0,0,1,16.91-32.61Z"/><path class="cls-1" d="M222.26,309.9V433.75H416.31V309.9Zm0,127.68V543.93c1.11.23,2.2.45,3.3.64,1.48.29,3,.54,4.48.77l.89.12c.59.1,1.19.18,1.79.25,1.5.22,3,.38,4.48.52.7.08,1.42.13,2.13.19l1.73.13h0c.94.07,1.87.12,2.8.16.57,0,1.15,0,1.73.06s.89,0,1.36,0h5c.77,0,1.54,0,2.3-.07h0a14.44,14.44,0,0,0,1.61-.06h.45a9.72,9.72,0,0,0,1.33-.06h.3c1-.06,2-.14,3-.23s2-.2,3-.3l2-.25a179.1,179.1,0,0,0,24.58-5.23c18.11-5.05,35.81-12.12,53.91-17.28,23.38-6.67,49.24-10,71.83-1.84V437.58ZM416.31,172V7.15a249.37,249.37,0,0,0-63,7.38c-49.14,12.35-93.27,39.13-131,73.32V172H232v3.82h-9.77V306.07H416.31V175.83H272V172Zm249.31-55.7c-12.15-.43-24.24-4.27-35.18-10.22-20.89-11.36-37.6-28.93-56.26-43.73C535.42,31.51,487.34,12.88,438,8.26V172H715l.69-.73Zm25.24-4.47,26.76,29.37v-37.1c-9,1.14-16.85,3.78-26.76,7.69Zm26.76,458.49V437.58H660.56c-.15-.57-.31-1.14-.49-1.71q.25.86.48,1.71H438v96c2.12,1.57,4.2,3.23,6.27,4.89h0q3.34,2.74,6.65,5.54l2.22,1.84c1.07.89,2.15,1.79,3.23,2.64q3.23,2.61,6.5,5.16c1.1.86,2.19,1.7,3.3,2.53a449.46,449.46,0,0,0,55.18,36.09c4.32,2.41,8.68,4.72,13.06,7q4.38,2.25,8.82,4.42,6.66,3.26,13.43,6.27h0A493.37,493.37,0,0,0,687.39,648q15,2.21,30.18,3.49V570.33h0ZM438,175.83V306.07h279.6V175.83Zm0,134.06V433.75h279.6V309.9Zm301.3-205.95v41.45l34.15-37.48Q756.49,105.11,739.32,103.94Zm0,206V433.75h271.94V309.9Zm271,270.26,1-142.58H739.32V653a490,490,0,0,0,52.55-.64h.31q12.52-.79,25-2.29h.19a458.75,458.75,0,0,0,128.22-34.25m118.18-285.53c-1-2.38-2.09-4.77-3.18-7.16-2-4.47-4.16-8.82-6.36-13.17H1033V433.75h53.63c0-35.08-8.93-70.89-22.88-103.51ZM1033,437.58V560.23c15.1-14.48,27.87-31.05,37.06-50,11.06-22.82,16.11-47.52,16.53-72.67Zm0-163.76v32.23h19.23A350.35,350.35,0,0,0,1033,273.82ZM848.54,128.25c-1.41-.55-2.84-1.09-4.26-1.61a386.91,386.91,0,0,0-45.93-13.81l-52.26,57.35h0l-1,1.1.67.73h186A397.31,397.31,0,0,0,848.54,128.25Zm88.68,47.58H743.14l-3.82,3.48V306.07h271.94V244.66A387.41,387.41,0,0,0,937.22,175.83Z"/><path class="cls-1" d="M200.56,241.53v64.54H110c0-.37.06-.76.09-1.13.08-1,.16-2.05.25-3.08.09-1.2.21-2.4.33-3.58s.23-2.62.37-3.92.26-2.61.4-3.91.29-2.6.45-3.88.31-2.6.49-3.89c.13-1.07.26-2.14.42-3.21.2-1.52.42-3,.64-4.53a3.71,3.71,0,0,1,.11-.68,311,311,0,0,1,6.66-32.7Z"/><path class="cls-1" d="M109.71,309.9h90.85V433.75H116.35c-.22,1.28-.43,2.55-.67,3.83h84.88v99.85a1.08,1.08,0,0,1-.42-.16q-3.58-1.42-7.17-3c-.51-.24-1-.48-1.53-.7q-3.57-1.69-7.16-3.58c-.83-.44-1.66-.9-2.48-1.36a149.27,149.27,0,0,1-35.72-27.81c-.31-.3-.6-.62-.89-.9-1.45-1.57-2.88-3.17-4.26-4.8-.52-.59-1-1.2-1.53-1.79-1.63-2-3.2-4-4.72-6.11-.24-.31-.45-.62-.68-.9a132,132,0,0,1-15.39-27.84c-.13-.29-.25-.62-.36-.89-1.24-3.14-2.36-6.31-3.32-9.56-.42-1.35-.82-2.68-1.16-4.09-.12-.4-.22-.81-.33-1.21-5-19.83-5.61-40.44-5.61-61V374.6q.11-12.56.29-25.09c0-2.15.09-4.31.14-6.47q.18-8.24.53-16.49c.06-1.52.13-3.06.21-4.57,0-.88.08-1.75.13-2.63C109.29,316.18,109.49,313,109.71,309.9Z"/><polygon class="cls-1" points="290.57 194.49 290.57 306.07 222.25 306.07 222.25 194.49 231.99 194.49 231.99 156.71 271.97 156.71 271.97 194.49 290.57 194.49"/><rect class="cls-1" x="222.25" y="309.9" width="68.31" height="123.84"/><path class="cls-1" d="M222.26,437.58h68.31v103A176.15,176.15,0,0,1,266,545.75c-.68.1-1.35.18-2,.25-1,.12-2,.22-3,.31l-3,.25h-.3l-1.33.07h-.46c-.53,0-1.06.06-1.6.07h0c-.77,0-1.53,0-2.3.07H245.6a14.47,14.47,0,0,1-1.74-.07c-.92,0-1.85-.09-2.79-.16h0l-1.73-.13c-.72,0-1.43-.12-2.14-.19-1.5-.14-3-.31-4.48-.51l-1.79-.25-.89-.13c-1.5-.22-3-.47-4.48-.76-1.11-.2-2.2-.42-3.3-.65Z"/><rect class="cls-1" x="661.28" y="181.31" width="56.33" height="124.75"/><polygon class="cls-1" points="717.62 309.9 717.62 433.75 438.02 433.75 438.02 380.32 586.95 380.32 586.95 411.84 661.28 411.84 661.28 309.9 717.62 309.9"/><path class="cls-1" d="M718.51,570.37a5.49,5.49,0,0,1-.9,0v81.24q-15.14-1.24-30.17-3.48A493.79,493.79,0,0,1,556.68,610q-18-8.13-35.31-17.72a449.35,449.35,0,0,1-55.17-36.09q-6.61-5-13-10.32c-3-2.45-5.9-5-8.89-7.38-2.06-1.68-4.14-3.33-6.27-4.91v-96H660.55c-.16-.58-.31-1.14-.47-1.71.17.57.33,1.13.48,1.71h57.06V570.31C717.92,570.32,718.21,570.34,718.51,570.37Z"/><path class="cls-1" d="M864.53,172h-36.7V160.61h16.44v-34c1.43.52,2.85,1.06,4.26,1.61v32.36h16Z"/><path class="cls-1" d="M953,306.07H739.32V181.32h9.47v92.21h43.28V218.92h35.77V175.83h36.7V219h35.75v54.61H953Z"/><path class="cls-1" d="M739.32,309.9V433.75H953V309.9ZM1011,579.51l.31-98H953V437.61H739.32V653a490,490,0,0,0,52.55-.64h.31q12.52-.79,25-2.29h.19a458.75,458.75,0,0,0,128.22-34.25"/><path class="cls-1" d="M1036.73,437.58h49.83c-.43,25.14-5.47,49.84-16.53,72.66-9.19,19-22,35.52-37.06,50V481.45h3.76Z"/><path class="cls-1" d="M1086.6,433.75h-49.87V330.24h27C1077.67,362.86,1086.56,398.67,1086.6,433.75Z"/><rect class="cls-1" x="687.44" y="215.99" width="30.18" height="39.11"/><rect class="cls-1" x="687.44" y="297.07" width="30.18" height="9.01"/><rect class="cls-1" x="687.44" y="309.9" width="30.18" height="26.28"/><rect class="cls-1" x="687.44" y="378.14" width="30.18" height="39.11"/><rect class="cls-1" x="687.44" y="459.22" width="30.18" height="39.11"/><path class="cls-1" d="M717.62,570.31a4.59,4.59,0,0,1,.9.06,5.43,5.43,0,0,1-.9,0v9.08H687.44V540.29h30.18Z"/><path class="cls-1" d="M717.62,621.35v30.21q-15.15-1.24-30.18-3.48V621.35Z"/><rect class="cls-1" x="438.02" y="430.87" width="129.34" height="2.87"/><rect class="cls-1" x="438.02" y="437.57" width="129.34" height="11.01"/><rect class="cls-1" x="438.02" y="484.68" width="129.34" height="17.71"/><path class="cls-1" d="M567.36,538.48v17.71H466.2q-6.61-5-13-10.33c-3-2.45-5.91-5-8.89-7.38Z"/><path class="cls-1" d="M567.36,592.28V610H556.68q-18-8.13-35.31-17.72Z"/><rect class="cls-1" x="791.87" y="321.9" width="25.46" height="25.46"/><rect class="cls-1" x="240.59" y="203.27" width="25.46" height="25.46"/><rect class="cls-1" x="240.59" y="262.41" width="25.46" height="25.46"/><rect class="cls-1" x="240.59" y="321.55" width="25.46" height="25.46"/><rect class="cls-1" x="240.59" y="380.68" width="25.46" height="25.46"/><rect class="cls-1" x="240.59" y="439.82" width="25.46" height="25.46"/><rect class="cls-1" x="240.59" y="498.96" width="25.46" height="25.46"/><rect class="cls-1" x="889.07" y="321.9" width="25.46" height="25.46"/><rect class="cls-1" x="791.87" y="384.7" width="25.46" height="25.46"/><rect class="cls-1" x="889.07" y="384.7" width="25.46" height="25.46"/><rect class="cls-1" x="791.87" y="447.5" width="25.46" height="25.46"/><rect class="cls-1" x="889.07" y="447.5" width="25.46" height="25.46"/><rect class="cls-1" x="791.87" y="510.3" width="25.46" height="25.46"/><rect class="cls-1" x="889.07" y="510.3" width="25.46" height="25.46"/><rect class="cls-1" x="791.87" y="573.1" width="25.46" height="25.46"/><rect class="cls-1" x="889.07" y="573.1" width="25.46" height="25.46"/><polygon class="cls-1" points="791.87 652.31 791.87 635.89 817.33 635.89 817.33 649.98 791.87 652.31"/><path class="cls-1" d="M113.43,274.23v14.56h87.13V274.23Zm8.68,13.65h-7.17V275.15h7.17Zm8.67,0h-7.16V275.15h7.16Zm8.66,0h-7.16V275.15h7.16Zm8.67,0H141V275.15h7.16Zm8.67,0h-7.16V275.15h7.16Zm8.67,0h-7.16V275.15h7.16Zm8.68,0H167V275.15h7.16Zm8.67,0h-7.17V275.15h7.17Zm8.66,0H184.3V275.15h7.16Zm8.68,0H193V275.15h7.17Z"/><path class="cls-1" d="M113.43,316.63v14.56h87.13V316.63Zm8.68,13.65h-7.17V317.55h7.17Zm8.67,0h-7.16V317.55h7.16Zm8.66,0h-7.16V317.55h7.16Zm8.67,0H141V317.55h7.16Zm8.67,0h-7.16V317.55h7.16Zm8.67,0h-7.16V317.55h7.16Zm8.68,0H167V317.55h7.16Zm8.67,0h-7.17V317.55h7.17Zm8.66,0H184.3V317.55h7.16Zm8.68,0H193V317.55h7.17Z"/><path class="cls-1" d="M113.43,359v14.55h87.13V359Zm8.68,13.63h-7.17V359.94h7.17Zm8.67,0h-7.16V359.94h7.16Zm8.66,0h-7.16V359.94h7.16Zm8.67,0H141V359.94h7.16Zm8.67,0h-7.16V359.94h7.16Zm8.67,0h-7.16V359.94h7.16Zm8.68,0H167V359.94h7.16Zm8.67,0h-7.17V359.94h7.17Zm8.66,0H184.3V359.94h7.16Zm8.68,0H193V359.94h7.17Z"/><path class="cls-1" d="M113.43,401.44V416h87.13V401.44Zm8.68,13.64h-7.17V402.33h7.17Zm8.67,0h-7.16V402.33h7.16Zm8.66,0h-7.16V402.33h7.16Zm8.67,0H141V402.33h7.16Zm8.67,0h-7.16V402.33h7.16Zm8.67,0h-7.16V402.33h7.16Zm8.68,0H167V402.33h7.16Zm8.67,0h-7.17V402.33h7.17Zm8.66,0H184.3V402.33h7.16Zm8.68,0H193V402.33h7.17Z"/><path class="cls-1" d="M113.85,443.82c.34,1.38.74,2.74,1.16,4.09v-3.17h7.16v12.72h-3.84c.11.3.22.62.35.9h81.91V443.82Zm17,13.64H123.7V444.74h7.16Zm8.66,0h-7.16V444.74h7.16Zm8.67,0H141V444.74h7.16Zm8.67,0H149.7V444.74h7.16Zm8.67,0h-7.16V444.74h7.16Zm8.68,0h-7.16V444.74h7.16Zm8.67,0h-7.17V444.74h7.17Zm8.66,0h-7.16V444.74h7.16Zm8.68,0h-7.17V444.74h7.17Z"/><path class="cls-1" d="M134,486.22c.23.28.45.6.67.89h4.74v6.12L141,495v-7.94h7.16v12.83h-2.94a12.55,12.55,0,0,0,.89.9h54.46V486.22Zm22.79,13.69h-7.16V487.13h7.16Zm8.68,0h-7.16V487.13h7.16Zm8.67,0H167V487.13h7.16Zm8.67,0h-7.16V487.13h7.16Zm8.67,0h-7.17V487.13h7.17Zm8.67,0H193V487.13h7.16Z"/><path class="cls-1" d="M181.83,528.62c.82.46,1.65.89,2.49,1.35v-.45h7.16v4c.52.22,1,.46,1.52.7v-4.74h7.16v7.75a3.52,3.52,0,0,0,.42.15v-8.8Z"/><path class="cls-1" d="M772.76,306.07ZM717.61,570.31ZM660.07,435.87q.25.86.48,1.71h0Q660.34,436.73,660.07,435.87Zm112.69-129.8ZM232,172v3.81h40V172ZM717.62,570.31ZM660.07,435.87q.25.86.48,1.71h0Q660.34,436.73,660.07,435.87Zm112.69-129.8ZM717.61,570.31ZM660.07,435.87q.25.86.48,1.71h0Q660.34,436.73,660.07,435.87Z"/><ellipse class="cls-1" cx="828.61" cy="765.61" rx="87.23" ry="14.01"/><ellipse class="cls-1" cx="435.18" cy="751.6" rx="87.23" ry="14.01"/><path class="cls-2" d="M535.61,381.12a.49.49,0,0,0-.14-.23c-1.33-1.32-18.34-25.37-18.34-25.37s-.9-2.69-2.35-6.18a5.9,5.9,0,0,0,1-2,6.19,6.19,0,0,0,.17-.94c0-.1.07-.18.1-.28a6.8,6.8,0,0,0-.09-3.69,5.87,5.87,0,0,1-.37.9,14.09,14.09,0,0,0-1.34-3c-2.25-3.89-5.48-7.17-7.85-10.95a29.67,29.67,0,0,1-4-19.66v1a30.47,30.47,0,0,1,.54-4,27.68,27.68,0,0,1,1.49-4.42c2.14-4.88,5.58-9.13,7.68-14a27,27,0,0,0,1.59-5.13,28.66,28.66,0,0,0,.8-9,14.14,14.14,0,0,1-.23,2.14,29.12,29.12,0,0,0-8.22-19.4c-7.32-7.35-17.82-10.21-27.86-11.71a25.61,25.61,0,0,1-11.73-4.48c-3.86-2.5-8.85-3.1-13.36-2.55a22,22,0,0,0-13.6,6.72c-4.77,5.25-6.84,12.68-12.41,17.1-3.37,2.69-7.65,3.94-11.58,5.77s-7.65,4.47-8.91,8.39v.15l0,.14c-1.31,4.64,1.21,9.36,2.53,14,1.37,4.79,1.46,9.85,1.53,14.8.1,6,.19,12.12.09,18.18,0,2.38-.12,4.79-.3,7.16a37.62,37.62,0,0,0-6.15,2.47c-2,1.31-9.51,9.41-9.51,9.41L380.06,398.5l.19.22-.19.76.74-.17c2.08,2.24,8.28,8.62,15,12.59l.62,11s.76,11,10.9,15.59c.23,3.82,1,19.35-2.4,25.5a28.57,28.57,0,0,0-3.17,14.57s1.17,9.33-.16,14.24a23.22,23.22,0,0,0-.17,10h0v2.94c0,9.93.12,41.75,0,45.35-.17,4.25,0,67.14,0,67.14s-.83,31.43-3.5,39.95-2,36.7-2,36.7-1.67,33.59,4.25,40.21c0,.3-.06.6-.07.9v.42c-.07,2.55.42,5.26,2.62,6.09,4.47,1.72,10.39,6.88,11.51,8.36s7.63,5.15,16.11,4.17a120.77,120.77,0,0,1,16-.74h0s3.35-.61,2.27-4.77h0c-.7-2.59-3.32-6.59-5.18-9.21.34.09.67.16,1,.22l.32.07h1.34c2.25-.22,10.63,3.68,12.12,6.26s6.77,4.54,10.75,5c2.36.29,8.32-.19,13.33-.84a48.45,48.45,0,0,0,7.46-1.36c1.18-.45,1.43-1.88,1.09-3.49h0a9.08,9.08,0,0,0-3.09-5.23c-1.45-1-3.37-3.74-4.78-6l-.38-.6c2.5-2.38,7-10.17,8.38-11.78,1.67-2-2.69-73.66-2.69-73.66V613l6.67-34,4.67-18,4-27.18s7-31.75,4.84-34.86h0c0-.07-1.79-32.75-3.67-40.6-.81-3.5-.61-11.38-.12-19a3.77,3.77,0,0,0,.89-3.93A7.48,7.48,0,0,0,505,434v-.41a61.91,61.91,0,0,1,12.06-4.1c6.67-1.31,5-4.75,5-4.75s1.5-2.94,2.49-4.74.17-17.68,0-19c-.06-.53-.47-3.45-.94-6.76,2.14-1.52,4.92-3.41,8-5.2C537.38,385.67,536.08,382.06,535.61,381.12Zm-87,227s-5,12.76-3,16-.33,15.4-.33,15.4l-1.68,18s-4.66,33.39-3,41.25c1.31,6.16,1.79,24.55,1.95,32.23h0a1.26,1.26,0,0,0-.33.16l-.23.11c.77-3,.45-9.12-3.37-21.4l-.33-50.74s-.59-58.6,4-65.15,6.27-17.68,6.27-17.68-1,16.05-1.66,20.3S448.59,608.1,448.59,608.1Zm-9.32,126.1-.14.31-.25-.32A1.7,1.7,0,0,0,439.27,734.2Z"/><path class="cls-3" d="M490.31,754.31c-2.59,1-16.62,2.68-20.54,2.21s-9.11-2.46-10.59-5.06-9.76-6.52-12-6.26a8.19,8.19,0,0,1-2.69-.38A32.71,32.71,0,0,1,440,743.1a8.29,8.29,0,0,1,.1-3.4,4.58,4.58,0,0,1,.19-.66,5.94,5.94,0,0,1,3-3.35l.32-.15a9.28,9.28,0,0,1,1.94-.6c7-1.35,36.07,1.37,36.07,1.37s.81,1.45,1.93,3.26c1.4,2.24,3.3,5,4.73,6a9.21,9.21,0,0,1,3.05,5.27C491.72,752.42,491.47,753.87,490.31,754.31Z"/><path class="cls-4" d="M490.31,754.31c-2.59,1-16.61,2.68-20.53,2.21s-9.12-2.47-10.6-5.06-9.75-6.52-12-6.26-7.16-2.1-7.16-2.1-.77-3.58,1.47-6l4.47,3.17s12,3.72,14.2,7.17,6.27,5.37,12.11,5.72c4.37.28,14.41-1.42,19.11-2.27C491.72,752.42,491.48,753.87,490.31,754.31Z"/><path class="cls-3" d="M447.45,758.87a119.32,119.32,0,0,0-15.81.75c-8.41,1-14.83-2.69-15.94-4.2s-6.92-6.63-11.36-8.42c-2.18-.84-2.69-3.58-2.59-6.14v-.42a25.27,25.27,0,0,1,.71-4.81l34.84-.74,3,4.09.46.63,1.84,2.5s.83,1.09,1.92,2.68c1.85,2.69,4.42,6.65,5.11,9.28h0C450.75,758.27,447.45,758.87,447.45,758.87Z"/><path class="cls-4" d="M447.45,758.87a119.32,119.32,0,0,0-15.81.75c-8.4,1-14.83-2.69-15.94-4.2s-6.92-6.67-11.36-8.4c-2.18-.84-2.69-3.58-2.59-6.14,2.49.58,7.71,2.07,9.77,4.66,2.68,3.45,7.49,9.26,14.32,9.63,5.51.29,18.94-.69,23.87-1.08C450.76,758.27,447.45,758.87,447.45,758.87Z"/><path class="cls-4" d="M443.31,735.65c-.41,3-1.65,3.8-2.55,4a1.83,1.83,0,0,1-.66,0,2.14,2.14,0,0,1-.35-.06s-31.28,6.91-37.6,1.32a4,4,0,0,1-.45-.47,25.88,25.88,0,0,1,.72-4.8l34.83-.75,3,4.09a5.89,5.89,0,0,1,3-3.34Z"/><path class="cls-4" d="M483.59,739.54c-.7.77-1.28,1.21-1.65,1.05-1.64-.66-15.14-3-19.43-1s-18.8.32-18.8.32,0-1.72-.08-4.48a10,10,0,0,1,1.93-.59c7-1.35,36.07,1.36,36.07,1.36S482.48,737.73,483.59,739.54Z"/><path class="cls-5" d="M504,537l-4,27.34-4.6,18.12-6.59,34.25V653s4.28,72.14,2.64,74.11S483.6,740.3,482,739.64s-15.14-3-19.43-1-18.8.33-18.8.33-.33-28-2-35.9,3-41.5,3-41.5l1.65-18.11s2.31-12.2.33-15.49,3-16.11,3-16.11-2.3-7.27-1.63-11.54,1.63-20.43,1.63-20.43-1.63,11.21-6.21,17.79-4,65.55-4,65.55l.32,51c8.25,27,0,24.38,0,24.38s-31.28,6.92-37.6,1.32-4.51-40.88-4.51-40.88-.66-28.33,2-36.88S403.09,622,403.09,622s-.17-63.25,0-67.52c.13-3.58,0-35.64,0-45.66v-3l3.78-9.39,44.76-5.6h21.42s32.23,7.57,35.56,10.84a.65.65,0,0,1,.17.2C510.94,505.09,504,537,504,537Z"/><path class="cls-4" d="M449.67,680.65s9.85,23.71,14.49,25.36S449.67,680.65,449.67,680.65Z"/><path class="cls-4" d="M453.31,715.56s33.25,1.65,32.92,5.28S453.31,715.56,453.31,715.56Z"/><path class="cls-4" d="M408.83,706.08c1.32,1.25,25.36,3.58,23.38,5.86s-21.4,6.69-21.4,6.69Z"/><path class="cls-4" d="M404.88,665.17c0,1,4.94,31.62,6.27,32.93s12.18,2.64,12.18,2.64Z"/><path class="cls-6" d="M440.74,246.42c-4.72,5.28-6.76,12.75-12.26,17.21-3.34,2.68-7.56,4-11.45,5.79s-7.74,4.61-8.89,8.75c-1.29,4.65,1.2,9.41,2.51,14.06,1.35,4.82,1.43,9.85,1.51,14.89.09,6.1.19,12.19.08,18.29-.16,9.5-.95,19.44-6,27.48,18.2,5.8,37.56,6.58,56.64,7.33a57.06,57.06,0,0,0,11-.28,94.46,94.46,0,0,0,9.37-2.37,71.74,71.74,0,0,1,18.67-2.39c2.75,0,5.56.17,8.21-.55s5.2-2.55,5.91-5.2c.64-2.38-.29-4.91-1.51-7.05-2.22-3.91-5.37-7.17-7.75-11a30.27,30.27,0,0,1-1.95-27.2c2.12-4.92,5.52-9.2,7.6-14.12a29.79,29.79,0,0,0-6-31.59c-7.23-7.39-17.59-10.26-27.51-11.78a25,25,0,0,1-11.59-4.47c-3.8-2.51-8.74-3.12-13.19-2.56A21.48,21.48,0,0,0,440.74,246.42Z"/><g class="cls-7"><path d="M505.13,299a29.8,29.8,0,0,0-2.28,13.67,29.24,29.24,0,0,1,2.28-9.7c2.11-4.92,5.51-9.2,7.58-14.12a28.48,28.48,0,0,0,2.09-13,27.58,27.58,0,0,1-2.09,9C510.64,289.81,507.24,294.08,505.13,299Z"/><path d="M412.43,305.9c.05,3.51.11,7,.11,10.54q0-7.24-.11-14.49c-.07-5-.16-10.07-1.51-14.89-.9-3.06-2.23-6.17-2.69-9.26-.8,4.39,1.47,8.84,2.69,13.21C412.27,295.8,412.36,300.9,412.43,305.9Z"/><path d="M510.45,349.51c-2.69.73-5.44.56-8.19.55a72.12,72.12,0,0,0-18.67,2.34,94.46,94.46,0,0,1-9.37,2.37,56.27,56.27,0,0,1-11,.28c-18.45-.72-37.15-1.5-54.81-6.77a29.8,29.8,0,0,1-1.79,3.4c18.2,5.78,37.56,6.58,56.63,7.32a56.27,56.27,0,0,0,11-.29,90.48,90.48,0,0,0,9.34-2.35A71.9,71.9,0,0,1,502.22,354c2.75,0,5.54.17,8.19-.56s5.21-2.54,5.92-5.19a7.11,7.11,0,0,0-.09-3.72C515.45,347,513,348.77,510.45,349.51Z"/></g><path class="cls-8" d="M483.93,338.9c-.66,1.49-3.45,14.33-4.12,15.64s-4.28,22.38-4.61,23.57-23.84-4.95-23.84-4.95L437.21,361.3l-14.55-14.48s-.43-13.06,10.29-17.25a17.12,17.12,0,0,1,2.24-.7c13-3.12,11.69-42.64,11.69-42.64l26.68,11.52s-4.95,23.06-4.78,27.51c.05,1.49,1.22,2.42,2.75,3a21.88,21.88,0,0,0,7.29.79S484.59,337.42,483.93,338.9Z"/><path class="cls-9" d="M531.69,382.21l3.79,1s2.8,4.26-3.79,8.23a113.46,113.46,0,0,0-12,8.4l-19.47,5.93L496.45,394l18.12-13.76Z"/><path class="cls-4" d="M531.69,382.21l3.79,1s2.8,4.26-3.79,8.23a113.46,113.46,0,0,0-12,8.4l-19.47,5.93L496.45,394l18.12-13.76Z"/><path class="cls-9" d="M389.59,393.58,382,401s13.66,15.81,24.17,16.79,17.29-12,17.29-12l-9.1-14.33Z"/><path class="cls-4" d="M389.59,393.58,382,401s13.66,15.81,24.17,16.79,17.29-12,17.29-12l-9.1-14.33Z"/><circle class="cls-4" cx="461.53" cy="285.71" r="26.35"/><circle class="cls-8" cx="461.53" cy="283.73" r="26.35"/><path class="cls-4" d="M508.8,504.92a84.54,84.54,0,0,0-17.63,3.95c-9.84,3.27-87,.05-88.09,0v-3l3.78-9.38,44.76-5.6H473s32.23,7.57,35.56,10.84C508.73,503.73,508.8,504.92,508.8,504.92Z"/><path class="cls-4" d="M483.93,338.9c-.66,1.49-3.45,14.33-4.12,15.64s-4.28,22.38-4.61,23.57-23.84-4.95-23.84-4.95L437.21,361.3l-14.55-14.48s-.43-13.06,10.29-17.25l26.6,30.59,12-31.91a21.88,21.88,0,0,0,7.29.79S484.59,337.42,483.93,338.9Z"/><path class="cls-9" d="M459.55,361.15l-27.23-31.34a11.42,11.42,0,0,0-10.8-.79c-6.1,2.64-13.68,4.78-15.65,6.09s-9.4,9.47-9.4,9.47l22.08,57.75-9.72,38s1.49,19.44-2.3,26.52a29,29,0,0,0-3.13,14.65s1.15,9.39-.17,14.33a23.93,23.93,0,0,0-.17,10s78.24,3.3,88.11,0a84.54,84.54,0,0,1,17.63-4S507,469,505.22,461.11s1.49-38,1.49-38l-2.14-32.28,12.84-33.12s-7-21.24-14.21-23.38c0,0-13.17-3.13-16-4.61s-11-2.8-11-2.8l-4.33,1.45Z"/><rect class="cls-4" x="417.67" y="404.27" width="95.95" height="62.7" rx="2.63" transform="translate(-0.56 870.64) rotate(-86.11)"/><rect class="cls-6" x="419.64" y="402.3" width="95.95" height="62.7" rx="2.63" transform="translate(3.24 870.77) rotate(-86.11)"/><rect class="cls-3" x="426.3" y="406.85" width="82.56" height="54.63" transform="translate(2.7 871.21) rotate(-86.11)"/><rect class="cls-4" x="463.83" y="398.18" width="12.44" height="44.63" transform="translate(17.76 860.04) rotate(-86)"/><rect class="cls-4" x="484.14" y="464.61" width="6.48" height="7.08" transform="translate(-12.76 922.66) rotate(-86.11)"/><rect class="cls-4" x="462.62" y="433.43" width="6.48" height="36.25" transform="translate(-16.26 885.72) rotate(-86.11)"/><rect class="cls-6" x="466.74" y="376.57" width="9.96" height="37.74" transform="translate(45.19 839.25) rotate(-86.11)"/><rect class="cls-4" x="466.74" y="376.57" width="9.96" height="37.74" transform="translate(45.19 839.25) rotate(-86.11)"/><path class="cls-4" d="M462.85,503.1s-.33,48.76-13.18,76.75c0,0,15.49-36.89,15.49-38.37s8.56-17,6.27-21.58S462.85,503.1,462.85,503.1Z"/><path class="cls-4" d="M463.55,277.14a18.33,18.33,0,0,1,3-12.28,15.12,15.12,0,0,0,11.69,15.94,2,2,0,0,1-.56-2.17c1.83,2.08,3.24,4.54,5.31,6.37s5.2,2.92,7.64,1.62c3.32-1.79,3.36-6.51,2.5-10.18a47.89,47.89,0,0,0-11-21,14.55,14.55,0,0,0-11.55-5.87c-5.09-.4-10.37.05-14.93,2.33a39.85,39.85,0,0,0-7.16,5l-12.53,10.22a12,12,0,0,0-3.05,3.21,8.9,8.9,0,0,0-.95,3.35,18.1,18.1,0,0,0,8.44,17.07,13.33,13.33,0,0,1,8-12.53,3.5,3.5,0,0,1,1.25,2.59l2.64-4.71a5.12,5.12,0,0,1,1.79-2.12c1.63-.9,3.66.16,5.05,1.42s2.74,2.84,4.6,3l.07-7"/><path class="cls-6" d="M463.55,276.15a18.29,18.29,0,0,1,3-12.28,15.13,15.13,0,0,0,11.7,15.94,2,2,0,0,1-.56-2.16c1.83,2.08,3.24,4.53,5.31,6.36s5.2,2.92,7.64,1.62c3.32-1.8,3.36-6.51,2.5-10.17a47.84,47.84,0,0,0-11-21,17.56,17.56,0,0,0-6.15-4.78,18.2,18.2,0,0,0-5.37-1.09c-5.08-.39-10.36.05-14.92,2.33a39.5,39.5,0,0,0-7.16,5L436,266.14a11.73,11.73,0,0,0-3,3.2,8.76,8.76,0,0,0-.95,3.36,18.09,18.09,0,0,0,8.43,17.06,13.37,13.37,0,0,1,8-12.53,3.47,3.47,0,0,1,1.24,2.58l2.63-4.69a5.21,5.21,0,0,1,1.8-2.12c1.62-.89,3.66.16,5,1.43s2.74,2.82,4.61,3l.07-7"/><path class="cls-8" d="M476,442.34c-2.3-1.16-40.35,4.77-40.35,4.77s-6.27-1.79-21.42-4.28-16.11-17.29-16.11-17.29l-1.66-29.65,5.11-4.47,21.9,14.32s.34,7.24,0,8.55a12,12,0,0,0-.73,2.69.88.88,0,0,0,.73.8c1.49.38,21.74,3.66,21.74,3.66s46.94-3.22,58.64,12.59a11.92,11.92,0,0,1,2.07,3.9C508.85,448.74,478.11,443.37,476,442.34Z"/><path class="cls-4" d="M506,438c-1.79.79-2.9,1.37-2.9,1.37s-16.79-.5-26.23-3.91-20.9-2.82-20.9-2.82-39.32-6.76-33.23-15.6a.92.92,0,0,0,.74.81c1.48.37,21.74,3.65,21.74,3.65s46.93-3.22,58.63,12.59A11.79,11.79,0,0,1,506,438Z"/><path class="cls-8" d="M522.3,385.84s2.31,16.3,2.47,17.63,1,17.28,0,19.1-2.47,4.77-2.47,4.77,1.65,3.46-4.94,4.78S503,437.39,503,437.39s-16.81-.49-26.19-3.95-20.91-2.8-20.91-2.8-49.91-8.57-28.5-19S464,415.32,464,415.32l23.88-1.48s8.9-5.44,11.37-4.94a9.14,9.14,0,0,0,5.1-.82l.17-17.3Z"/><path class="cls-4" d="M401.23,345.82l-4.78-.25L382,402s15.64-4,22.38,0,19.11,4.77,19.11,4.77l-4.61-45Z"/><path class="cls-9" d="M401.23,344.83l-4.78-.25L382,401s15.64-4,22.38,0,19.11,4.77,19.11,4.77l-4.61-45Z"/><path class="cls-4" d="M510.78,357.18l6.58,1.49s16.8,24.17,18.12,25.52-6.27,6.27-9.39,6.27-18.44,1.79-22.89,5.93-2.6-16.68-2.6-17.16,5.53-13.6,5.53-13.6Z"/><path class="cls-9" d="M510.78,356.2l6.58,1.48s16.8,24.21,18.12,25.53-6.27,6.26-9.39,6.26-18.44,1.8-22.89,5.93-2.6-16.68-2.6-17.15,5.56-13.65,5.56-13.65Z"/><g class="cls-7"><path d="M466.48,264a12.89,12.89,0,0,1,0-2.06,18.52,18.52,0,0,0-2.76,6.76v2.5c0,1.45,0,2.91,0,4.36h-.13v.67a4,4,0,0,0,0-.69c-1.79-.29-3.07-1.79-4.41-3s-3.42-2.34-5-1.42a5.12,5.12,0,0,0-1.79,2.12l-2.66,4.69a3.44,3.44,0,0,0-1.24-2.58,13.36,13.36,0,0,0-8,12.54,18.19,18.19,0,0,1-8.49-14.27,18.09,18.09,0,0,0,8.49,16.23,13.38,13.38,0,0,1,8-12.53,3.51,3.51,0,0,1,1.24,2.59l2.63-4.69a5.14,5.14,0,0,1,1.8-2.12c1.62-.9,3.66.16,5,1.42s2.74,2.83,4.61,3q0-3.43.07-6.85A18.24,18.24,0,0,1,466.48,264Z"/><path d="M463.46,273c0-.61.11-1.22.2-1.79l.1-2.48A18,18,0,0,0,463.46,273Z"/><path d="M490.62,283.65c-2.44,1.3-5.56.21-7.64-1.61s-3.48-4.29-5.31-6.37a2,2,0,0,0,.56,2.17,1.91,1.91,0,0,1-.52-.14c1.79,2.06,3.21,4.48,5.27,6.27s5.2,2.92,7.64,1.61,3.14-4.37,2.93-7.35C493.39,280.58,492.54,282.61,490.62,283.65Z"/><path d="M477.66,277.68a15.22,15.22,0,0,1-11.16-13.3,15.13,15.13,0,0,0,11.73,15.43A2,2,0,0,1,477.66,277.68Z"/></g><path class="cls-10" d="M907.59,424s-3.52-.49-3.52-5.62-2.53-14.73-2.53-14.73h0s-2.18-16.72-5.2-19.37-6.89-18.21-6.89-18.21-.67-8.44-2-10.26-3.18-6.26-5.87-12.61-13.9-10.7-13.9-10.7-20.32-11.78-26.07-15.62h0a8.86,8.86,0,0,1-1.47-1.11c-1-1.31-5.37-1.34-5.37-1.34a86.56,86.56,0,0,1-1-9.2v-1a31,31,0,0,0,13.62-16.84c.1-.34.19-.69.29-1a2.9,2.9,0,0,0,1.79-1.58c.51-1.15.53-2.5,1.17-3.58.76-1.27,2.19-2,3.32-2.9,2.84-2.43,3.58-6.5,3.44-10.2-.09-3-.57-6-.38-9a3.78,3.78,0,0,1,0-.75c.06-.44.12-.9.2-1.33.44-2.22,1.4-4.31,1.93-6.52s.59-4.68-.66-6.58c-1.84-2.78-5.66-3.34-9-3.58-3.8-.32-7.16.09-9.64-3.07a33.2,33.2,0,0,0-3.83-4.62c-.5-.46-5.37-3.44-5.37-3.63a21.8,21.8,0,0,0-15.22-1.18c-2.53.74-4.91,1.94-7.48,2.54-5.51,1.31-11.87-.11-16.56,3.05-2.61,1.79-4.18,4.65-5.65,7.41-1.19,2.28-2.4,4.57-3.63,6.85-2,3.75-4,7.57-4.83,11.72a21.27,21.27,0,0,0-.33,2.75h0v1.42a4.44,4.44,0,0,0,.06.9,4.83,4.83,0,0,0,.06.55c.06.19.08.61.13.9s.16.8.27,1.18a1.94,1.94,0,0,0,.16.5c.06.17.2.6.32.9a4.78,4.78,0,0,0,.19.46,9.46,9.46,0,0,0,.46.9c.07.11.12.23.2.35a9.78,9.78,0,0,0,.82,1.2c1.91,2.39,4.74,3.91,6.82,6.15v1a30.67,30.67,0,0,0,14,25c0,.34,0,.69.06,1a50.38,50.38,0,0,1-.1,8,3.79,3.79,0,0,0-3-1.32,4,4,0,0,0-1.14.1l-.09-.07h0v.08c-2,.49-4.39,2.54-6.71,8.37,0,0-7,7.95-12.43,7.62s-19,8.28-19,8.28S744.84,344.22,742,353a120.76,120.76,0,0,1-5.72,14.58l-16.45,33.77h0l-3,26.85s1.67,11.92,1.34,13.75S725,460.15,725,460.15s23.84,41.88,33.58,44l.7-.48a6.13,6.13,0,0,0,1.32.48l2-1.4a20.71,20.71,0,0,1-.16,4.72c-1.33,4.14.51,31.13,2.86,36.42s1.51,74.67,1.51,74.67l-.33,6.11a2.62,2.62,0,0,0,.08.54l-.08,1.45.24.13a17.3,17.3,0,0,1-.24,5.83c-.84,2.69-1.18,10.27-1.18,10.27s-6.72,42.87-3.53,51.48,5.88,18.05,5.88,18.05,3.36,10.74.16,12.53-12.24,5-10.4,9.44c1.7,4.13,8.16,15.22,9.12,16.84l-.09.89-1.31,14.26a17.83,17.83,0,0,0,1.51,5.45c1.44,3.11,4.24,6.33,9.57,6,.9-.07,1.93-.16,2.94-.3,9.75-1.31,21.74-5.67,21.74-5.67a8.39,8.39,0,0,1-1.69-1.4h0a4.88,4.88,0,0,1-1.49-3.58c.14-2.61-4.72-15-5.94-18l-.28-.68s11.09-11.6,9.24-21.86c0,0-12.26-7.16-8.22-11.1S803.79,700,803.79,700s.33-42.21,0-48.5a51.88,51.88,0,0,1,.62-13.11c.13-.64.29-1.28.46-1.91a115,115,0,0,0,16.89,1.28c2.06,0,4.15,0,6.26-.13,0,.6,0,1.24.08,1.93.47,10.46,1.34,28.8,2,35.62,1,9.76,6.54,36.08,6.54,36.08s-10.57,6.78,1.84,23.51c0,0,0,6.06-.82,6.94h0a74.84,74.84,0,0,0-2.12,8.75c-.52,3.14-.74,6.34.11,8,2,4,14.1,3.64,14.1,3.64h0l.29-.05a17.31,17.31,0,0,1,12.79,3.85c4.6,3.69,22,2.08,31.46.9,3.7-.47,6.17-.9,6.17-.9a3.68,3.68,0,0,0,.13-1.28h0c-.1-2.32-1.92-7.41-14.24-12,0,0-11.58-7.79-11.42-14.57h-1.59c.84,0,1.43,0,1.43,0s-4.54-16.55-2.69-17.9-3.69-19.7-3.69-19.7-3.18-30.8-3.36-32.94a18.75,18.75,0,0,1,.84-5.47l-.84-16.89s-.16-5.61,0-7.44a35.62,35.62,0,0,0-.38-4.73c-.08-.63-.16-1.29-.25-1.93,4.34-1.1,7.16-2.11,7.16-2.11l-.5-58.78c3.69-7.16,4.37-22.88,4.35-34,0-7.16-.32-12.46-.32-12.46l5-8.22s1.16-9.85-.68-12a2.07,2.07,0,0,1,.22-2.82,10.78,10.78,0,0,1,1.12-.79,1.28,1.28,0,0,1-.11-.2,8.06,8.06,0,0,1,1.12-.79s-1.79-2.78-.19-4c1.5,1,2.84,1.84,3.87,2.42-.08.65-.15,1-.15,1l.43-.9,1.59.9s7.89-15.73,7.72-18,5.37-12.09,5.37-12.09.68-5.14,3.7-7.29,2.35-17.71,2.35-17.71.84-8.11,2.85-11.42S907.59,424,907.59,424Zm-151.08-6.9.15,3.75c-.89-1.44-1.54-2.47-1.54-2.47Z"/><path class="cls-3" d="M887.86,491.54l-1.93,8.24s-15.49-7.92-18.27-17.95S872.32,468,872.32,468l14.44,6.11Z"/><path class="cls-4" d="M887.86,491.54l-1.93,8.24s-15.49-7.92-18.27-17.95S872.32,468,872.32,468l14.44,6.11Z"/><path class="cls-3" d="M800.94,771.86s-14.32,5.26-24.17,5.92c-5.23.35-8-2.85-9.39-5.94a18.35,18.35,0,0,1-1.49-5.37l1.3-14.19.68-7.55,20.92-5.44,3,9.07.27.68c1.19,3,6,15.33,5.82,17.9a5,5,0,0,0,1.46,3.58A8.75,8.75,0,0,0,800.94,771.86Z"/><path class="cls-3" d="M898.74,764.64a3.53,3.53,0,0,1-.13,1.29s-30.63,5.1-36.9,0a16.61,16.61,0,0,0-12.85-3.79s-11.86.32-13.84-3.58c-.82-1.64-.6-4.82-.09-7.94a76.39,76.39,0,0,1,2.07-8.7l.48-.38,2.82-2.26,33-1h.26c-.17,6.75,11.19,14.5,11.19,14.5C896.86,757.27,898.64,762.33,898.74,764.64Z"/><path class="cls-4" d="M898.75,764.64a3.76,3.76,0,0,1-.14,1.29s-30.63,5.1-36.89,0a16.58,16.58,0,0,0-12.86-3.79s-11.87.32-13.84-3.58c-.82-1.64-.61-4.82-.1-7.95,4.56.46,11.77,1.6,14.6,4.32,4.28,4.11,11.53,8.23,16,8.56C869,763.71,889.87,764.37,898.75,764.64Z"/><path class="cls-4" d="M800.94,771.86s-14.32,5.26-24.17,5.92c-5.23.35-8-2.85-9.39-5.94,3.65,1.22,8.71,2.5,11.37,1.33,3.15-1.4,14.32-2.3,20.59-2.68A8.4,8.4,0,0,0,800.94,771.86Z"/><path class="cls-11" d="M822.2,347.6c-11.82-4.59-27-19.76-23.23-26.85a16.13,16.13,0,0,0,1.48-5.7,52.89,52.89,0,0,0,.11-8.06A111.41,111.41,0,0,0,799,293.88s36.9.83,34.75,6.27c-.63,1.6-.74,4.37-.56,7.45s.62,6.61,1.09,9.57c.63,4.06,1.28,7.17,1.28,7.17s-2.26,3.16-3.58,3.33S839.15,354.18,822.2,347.6Z"/><path class="cls-4" d="M792,749l-.28.31c-11-13.34-24.37,3.29-24.37,3.29l-.19-.36.68-7.55,20.92-5.44,3,9.07Z"/><path class="cls-4" d="M873.58,739.24s-8.05-.16-12.35,3.64-25.07.81-24.17,0a3.1,3.1,0,0,0,.46-1.37l2.82-2.27,33-1C873.48,738.89,873.58,739.24,873.58,739.24Z"/><path class="cls-9" d="M805.72,634.49a25.22,25.22,0,0,0-1.36,4.59,53.21,53.21,0,0,0-.62,13c.34,6.26,0,48.26,0,48.26s-7.08,11.2-11,15.15,8,11,8,11c1.79,10.21-9.06,21.74-9.06,21.74-11-13.34-24.37,3.29-24.37,3.29s-7.25-12.54-9.06-17,7.09-7.57,10.21-9.39-.16-12.54-.16-12.54-2.63-9.39-5.77-18S766,643.49,766,643.49s.34-7.58,1.15-10.22a17.4,17.4,0,0,0,.25-5.8c-.06-.65-.12-1.19-.17-1.57a4.46,4.46,0,0,0-.08-.53l.13-.22,4.48-8.34S807.87,629.23,805.72,634.49Z"/><path class="cls-9" d="M873.58,738.26s-8.05-.17-12.35,3.58-25.07.82-24.17,0,.81-6.91.81-6.91c-12.18-16.65-1.79-23.4-1.79-23.4s-5.43-26.18-6.42-35.9c-.69-6.77-1.54-25.06-2-35.42-.2-4.48-.32-7.57-.32-7.57l9.87-2,1.28-.25,24-4.82s.66,4.47,1.11,8.14a35.31,35.31,0,0,1,.37,4.71c-.16,1.79,0,7.41,0,7.41l.82,16.79a19.22,19.22,0,0,0-.82,5.44c.17,2.14,3.29,32.77,3.29,32.77s5.43,18.28,3.58,19.6S873.58,738.26,873.58,738.26Z"/><path class="cls-4" d="M833.72,300.17c-.63,1.61-.74,4.37-.56,7.46a30.65,30.65,0,0,1-32.6-.61A110.9,110.9,0,0,0,799,293.91S835.87,294.74,833.72,300.17Z"/><path class="cls-11" d="M848,280.41a30.63,30.63,0,1,1-61.25.73v-.73a30.64,30.64,0,1,1,61.27,0Z"/><path class="cls-4" d="M822.2,347.6c-11.82-4.59-27-19.76-23.23-26.85a16.13,16.13,0,0,0,1.48-5.7l16.18,13.31,10,8.21,7.61-19.37c.63,4.06,1.28,7.16,1.28,7.16s-2.26,3.16-3.58,3.33S839.15,354.18,822.2,347.6Z"/><polygon class="cls-9" points="864.03 406.39 850.52 633.34 832.9 634.5 787.27 502.9 794.76 346.67 796.34 313.67 816.63 330.32 826.64 338.54 834.47 318.6 849.03 331.29 864.03 406.39"/><path class="cls-4" d="M805.72,634.49a25.22,25.22,0,0,0-1.36,4.59,130.09,130.09,0,0,1-37-11.54l-.24-.12.08-1.45v-.75l4.47-8.34S807.87,629.23,805.72,634.49Z"/><path class="cls-4" d="M837.51,639.12a88.73,88.73,0,0,1-9.9,1.13c-.2-4.47-.31-7.56-.31-7.56l9.92-2Z"/><path class="cls-4" d="M863.65,633.75c-6.36,1.65-16.2,3.51-25,2.35l-.13-5.67,24-4.82S863.18,630.05,863.65,633.75Z"/><path class="cls-4" d="M838.5,637.14c-36.71,6.26-70.32-11.7-70.32-11.7l.32-6.09s.83-69-1.48-74.31-4.11-32.08-2.8-36.17S759.45,443,759.45,443l-1-25.07-36.07-14.65,16.12-33.6a123,123,0,0,0,5.6-14.5c2.8-8.73,15.81-17.3,15.81-17.3s13.34-8.56,18.61-8.24,12.19-7.57,12.19-7.57c5.1-13,9.72-7.16,9.72-7.16a11.42,11.42,0,0,1-.25,1.92c-1.79,14.28,28.95,59.4,29.39,60.21h0l3,71.32,3,90.25Z"/><path class="cls-3" d="M837.51,637.14c-36.7,6.26-70.33-11.7-70.33-11.7l.33-6.09s.83-69-1.48-74.31-4.11-32.11-2.8-36.24S758.44,443,758.44,443l-1-25.07-36.06-14.66,16.12-33.6a122.17,122.17,0,0,0,5.6-14.49c2.8-8.7,15.85-17.28,15.85-17.28s13.34-8.56,18.61-8.23,12.21-7.57,12.21-7.57c5.11-13,10.74-7.16,10.74-7.16,0,.63-.53.89-.25,1.92,3.94,13.85,28,59.4,28.41,60.21h0l3,71.32,2.9,90.29Z"/><path class="cls-4" d="M827.62,379.05c-4-1.64-24.86-25.52-24.86-25.52V348.1c-.76-1.79-5.29-.7-9,.55l1.57-33,1.79,1.49C801.09,331,827.19,378.26,827.62,379.05Z"/><path class="cls-3" d="M828.61,377.08c-4-1.65-24.87-25.52-24.87-25.52v-5.44c-.76-1.79-5.28-.7-9,.55l1.55-33,1.79,1.48C802.08,329,828.18,376.28,828.61,377.08Z"/><path class="cls-4" d="M768.18,496.15c.49,0,25.52-2.63,25.52-2.63s15.16,29.81,14.16,37.06-2.79,13.67-8.89,12.53-32.81.89-32.81.89Z"/><path class="cls-3" d="M767.18,494.17c.5,0,25.53-2.63,25.53-2.63s15.15,29.86,14.17,37-2.8,13.67-8.89,12.54-32.82.89-32.82.89Z"/><path class="cls-11" d="M786,480.22s23,12.35,23.47,16.11-11.69-1.64-14.32-2.31a34.92,34.92,0,0,0-5.28-.82l-17.55.47Z"/><circle class="cls-4" cx="821.2" cy="378.18" r="2.42"/><circle class="cls-6" cx="821.2" cy="377.19" r="2.42"/><circle class="cls-4" cx="825.65" cy="482.81" r="2.42"/><circle class="cls-6" cx="825.65" cy="481.82" r="2.42"/><circle class="cls-4" cx="823.62" cy="430.5" r="2.42"/><circle class="cls-6" cx="823.62" cy="429.51" r="2.42"/><path class="cls-3" d="M879.34,492.7s1.65,2.47,0,3.58.16,4,.16,4-4.11,2.39-2.3,4.57.66,11.94.66,11.94L872.92,525s.3,5.27.31,12.4c0,11.12-.65,26.75-4.27,33.88l.49,58.47s-17.31,6.32-31.79,4.39l-2.15-93.82s3.13-53.21,4.29-63.41a106.7,106.7,0,0,0,.82-16s-.49-16-2.15-23.38c0,0-1.79-32.12-2-41-.08-4.25.14-16.66.4-28.46.27-12.9.59-25.07.59-25.07l-3.27-25.86s3.27-.32,4.25,1a9.6,9.6,0,0,0,1.43,1.11h0c5.65,3.81,25.58,15.54,25.58,15.54s11,4.38,13.67,10.67,4.48,10.74,5.76,12.53,2,10.21,2,10.21,3.79,15.49,6.76,18.11,5.09,19.27,5.09,19.27l-26.19,20.59s-2.3,34.26-2.79,35.58S879.34,492.7,879.34,492.7Z"/><path class="cls-3" d="M880.33,492.7s1.64,2.47,0,3.58.16,4,.16,4-4.11,2.39-2.31,4.57.67,11.94.67,11.94L873.92,525s.3,5.27.33,12.4c0,11.12-.66,26.75-4.27,33.88l.49,58.47s-17.31,6.32-31.79,4.39l-2.14-93.82s3.12-53.21,4.29-63.41a106.69,106.69,0,0,0,.81-16s-.49-16-2.14-23.38c0,0-1.79-32.12-2-41-.08-4.25.15-16.66.4-28.46.27-12.9.59-25.07.59-25.07l-4.32-26.21s4.32,0,5.31,1.33a9,9,0,0,0,1.43,1.11h0c5.64,3.81,25.57,15.54,25.57,15.54s11,4.38,13.69,10.67S884.67,356.17,886,358s2,10.21,2,10.21,3.8,15.49,6.76,18.11,5.11,19.27,5.11,19.27L873.6,426.14s-2.3,34.26-2.8,35.58S880.33,492.7,880.33,492.7Z"/><path class="cls-4" d="M849,350.59l2.37,6.9L838.89,370c.28-12.9.59-25.07.59-25.07l-4.31-26.2s4.31,0,5.31,1.33a7.66,7.66,0,0,0,1.43,1.1h0l10.58,30.52Z"/><path class="cls-3" d="M848,348.62l2.37,6.88L837.89,368c.27-12.9.59-25.06.59-25.06l-4.32-26.22s4.32,0,5.3,1.34a9.14,9.14,0,0,0,1.44,1.1h0l10.64,30.54Z"/><path class="cls-4" d="M848,280.41a30.57,30.57,0,0,1-1.5,9.49,1.25,1.25,0,0,1-1-.23c-.24-8.06-4.2-15.63-9.08-22.07a23.34,23.34,0,0,0-4.92-5.1,9.65,9.65,0,0,0-6.68-1.89c-2.69.37-5.06,2.2-7.77,2.43-3.58.29-6.79-2.19-10.34-2.3a10.12,10.12,0,0,0-7.6,3.52,20.85,20.85,0,0,0-4.08,7.55,44.48,44.48,0,0,0-2.27,13c0,2.5-.29,5.65-2.61,6.56a13.36,13.36,0,0,0-3.38-10.21l0-.06v-.73a30.64,30.64,0,1,1,61.27,0Z"/><path class="cls-12" d="M830.06,231.77a21.08,21.08,0,0,0-14.88-1.17c-2.48.74-4.82,1.93-7.34,2.53-5.37,1.3-11.63-.11-16.24,3-2.56,1.79-4.1,4.62-5.54,7.38l-3.58,6.81c-2,3.74-3.92,7.53-4.73,11.64s-.33,8.71,2.28,12c1.89,2.4,4.7,3.92,6.76,6.18a13.4,13.4,0,0,1,3.36,10.23c2.33-.89,2.56-4.05,2.62-6.56a44.42,44.42,0,0,1,2.27-13,20.69,20.69,0,0,1,4.08-7.55,10.14,10.14,0,0,1,7.6-3.54c3.58.13,6.79,2.61,10.34,2.3,2.68-.22,5.06-2.05,7.77-2.41a9.6,9.6,0,0,1,6.68,1.89,22.64,22.64,0,0,1,4.91,5.1c4.89,6.44,8.85,14,9.09,22.07,1,.73,2.47-.24,3-1.38s.52-2.49,1.15-3.58c.74-1.27,2.14-2,3.25-2.89,2.79-2.41,3.49-6.47,3.38-10.15s-.82-7.41-.13-11c.43-2.21,1.37-4.29,1.89-6.49s.59-4.65-.64-6.54c-1.79-2.77-5.56-3.32-8.85-3.58-3.73-.33-7.07.09-9.45-3.06a36,36,0,0,0-3.76-4.6C834.83,234.92,830.06,232,830.06,231.77Z"/><path class="cls-4" d="M732.72,420.56l-9.34-17.29-3,26.68s1.65,11.85,1.32,13.67,6.75,18.11,6.75,18.11,23.39,41.67,32.95,43.81l32.22-23.06-8.55-10.87s-3-1.15-3.71,0c0,0-15.9-27.34-17.54-29.31s-1.32-5.93-1.32-5.93-2.47-2.63-1.65-5.1-4.73-11-4.73-11l5.11-4.78Z"/><path class="cls-3" d="M723.87,401.29l-2.47,2-3,26.68s1.64,11.85,1.31,13.67,6.76,18.11,6.76,18.11,23.38,41.67,32.94,43.81l32.28-23.06-8.57-10.87s-3-1.15-3.7,0c0,0-15.9-27.34-17.54-29.31s-1.32-5.93-1.32-5.93-2.47-2.63-1.65-5.1-4.78-11-4.78-11l5.11-4.78Z"/><path class="cls-4" d="M877.2,505.84c1.79,2.18.66,11.95.66,11.95L872.92,526s.3,5.28.31,12.4l-8.3,2.6a4.94,4.94,0,0,1-6.19-3.25,4.67,4.67,0,0,1-.22-1.62L860,489.9l19.38,7.41c-1.65,1.14.16,4,.16,4S875.39,503.66,877.2,505.84Z"/><path class="cls-3" d="M878.18,504.86c1.8,2.16.67,11.94.67,11.94L873.92,525s.3,5.27.33,12.4L865.79,540a4.82,4.82,0,0,1-6-3.16,4.74,4.74,0,0,1-.22-1.59L861,488.91l19.37,7.42c-1.65,1.15.16,4,.16,4S876.38,502.68,878.18,504.86Z"/><path class="cls-11" d="M884.61,482.81s-1.31,8.41-4.61,8.9-4.77,13.6-8.06,13.15-1.11-12.2-1-14.47-3.58-11.69-.82-13.83,11.53,0,11.53,0Z"/><path class="cls-4" d="M891.58,418.09l6.2-12.54s2.48,9.56,2.48,14.66,3.46,5.6,3.46,5.6,3.78,4.48,1.79,7.75-2.8,11.36-2.8,11.36.66,15.48-2.31,17.62-3.62,7.25-3.62,7.25-5.44,9.71-5.27,12-7.57,17.95-7.57,17.95,3.79-19.43-18.28-27.83c0,0-.17-6.59,1.48-8.4s4.21-2.69,2.6-11.78-.46-20.06-.46-22.26,4.94-15.86,4.94-15.86Z"/><path class="cls-3" d="M894.33,403.76l5.43,1.79s2.48,9.56,2.48,14.66,3.46,5.6,3.46,5.6,3.78,4.48,1.79,7.75-2.81,11.36-2.81,11.36.67,15.48-2.3,17.62-3.58,7.25-3.58,7.25-5.43,9.71-5.26,12S886,499.76,886,499.76s3.78-19.43-18.29-27.83c0,0-.16-6.59,1.49-8.4s4.22-2.69,2.61-11.78-.47-20.06-.47-22.26,4.94-15.86,4.94-15.86Z"/><path class="cls-4" d="M774.48,728.62s8.65-5.43,14.32-1.48S774.48,728.62,774.48,728.62Z"/><path class="cls-4" d="M841.69,711.82a17.53,17.53,0,0,1,14.09,5.94C862.2,724.68,841.69,711.82,841.69,711.82Z"/><g class="cls-7"><path d="M852.88,278.87c-1.11.95-2.52,1.63-3.25,2.89-.63,1.08-.65,2.42-1.15,3.58s-2,2.11-3,1.38c-.23-8.06-4.2-15.62-9.08-22.07a22.8,22.8,0,0,0-4.91-5.09,9.57,9.57,0,0,0-6.69-1.9c-2.69.36-5.05,2.19-7.76,2.42-3.58.3-6.8-2.18-10.35-2.3a10.09,10.09,0,0,0-7.59,3.53,20.77,20.77,0,0,0-4.08,7.55,44.42,44.42,0,0,0-2.27,13c-.06,2.5-.29,5.62-2.6,6.55a11,11,0,0,1,0,2c2.34-.89,2.57-4.05,2.63-6.56a44.09,44.09,0,0,1,2.27-13,20.67,20.67,0,0,1,4.07-7.55,10.13,10.13,0,0,1,7.59-3.54c3.59.13,6.81,2.61,10.35,2.3,2.69-.22,5.07-2.05,7.77-2.41a9.58,9.58,0,0,1,6.68,1.88,22.94,22.94,0,0,1,4.92,5.11c4.88,6.44,8.84,14,9.08,22.07,1,.73,2.48-.24,3-1.38s.52-2.49,1.14-3.58c.74-1.27,2.15-1.95,3.25-2.9,2.8-2.4,3.49-6.46,3.39-10.14v-.34C856.11,273.57,855.26,276.82,852.88,278.87Z"/><path d="M786.78,278.24c-2-2.27-4.86-3.79-6.75-6.19a12.93,12.93,0,0,1-2.61-7.32A13.8,13.8,0,0,0,780,274c1.89,2.4,4.7,3.91,6.75,6.18a13.38,13.38,0,0,1,3.38,8A13.4,13.4,0,0,0,786.78,278.24Z"/><path d="M858,251.2c-.52,2.2-1.46,4.28-1.89,6.49a20.26,20.26,0,0,0-.28,4.53,16.86,16.86,0,0,1,.28-2.55c.43-2.21,1.37-4.3,1.89-6.49a11,11,0,0,0,.3-3.71A12.51,12.51,0,0,1,858,251.2Z"/></g><ellipse class="cls-1" cx="160.12" cy="744.13" rx="87.23" ry="14.01"/><rect class="cls-13" x="157.32" y="475.72" width="5.61" height="126.38"/><path class="cls-6" d="M198.21,601.73l-.36,5.69-.49,8.06-.2,3.35-.51,8.06-.21,3.35-.49,8-5.67,91.38a15.47,15.47,0,0,1-15.44,14.52H145.41A15.45,15.45,0,0,1,130,729.61l-5.67-91.38-.49-8.06-.21-3.35-.51-8.05-.21-3.35-.49-8.06-.36-5.69a8.06,8.06,0,0,1,7.59-8.5l.42,0h60.18a8.07,8.07,0,0,1,8,8.11C198.23,601.42,198.22,601.57,198.21,601.73Z"/><polygon class="cls-14" points="197.85 607.42 197.35 615.46 122.89 615.46 122.38 607.42 197.85 607.42"/><polygon class="cls-14" points="197.15 618.8 196.65 626.84 123.59 626.84 123.09 618.8 197.15 618.8"/><polygon class="cls-14" points="196.44 630.2 195.95 638.23 124.3 638.23 123.8 630.2 196.44 630.2"/><path class="cls-9" d="M113.85,523.1c32.7,23.65,46.31,60.65,46.31,60.65s-39.39-1.36-72.09-25-46.34-60.62-46.34-60.62S81.12,499.45,113.85,523.1Z"/><path class="cls-15" d="M41.73,498.12s40.89,22.7,54,41.49,64.4,44.15,64.4,44.15"/><path class="cls-9" d="M134.92,475.46c17.79,12.86,25.21,33,25.21,33s-21.49-.73-39.24-13.59-25.21-33-25.21-33S117.13,462.58,134.92,475.46Z"/><path class="cls-15" d="M95.68,461.85s22.25,12.35,29.4,22.58,35.05,24,35.05,24"/><path class="cls-9" d="M186,507.43c-20.44,22.47-24.76,51.82-24.76,51.82s28.82-7.07,49.24-29.54,24.76-51.82,24.76-51.82S206.42,485,186,507.43Z"/><path class="cls-15" d="M235.24,477.9s-26.63,23-33.39,38.89-40.63,42.46-40.63,42.46"/></svg>