<svg id="a50fd755-b70f-4e5f-b336-9e50a578b62c" xmlns="http://www.w3.org/2000/svg" viewBox="0 0 1128.33 786.75"><defs><style>.cls-1{fill:#0bc4d2;}.cls-2{fill:none;stroke:#3f3d56;stroke-miterlimit:10;}.cls-3{fill:#e77185;}.cls-4{fill:#36334a;}.cls-5{fill:#fbbebe;}.cls-6{opacity:0.1;isolation:isolate;}.cls-7{fill:#3f3d56;}.cls-8{fill:#696880;}</style></defs><title>patient</title><path class="cls-1" d="M984.6,416.09a22.93,22.93,0,1,1,18-40.25L996.53,386l9.69-6.3a22.91,22.91,0,0,1,4.31,16.94,22.26,22.26,0,0,1-1.75,6.09A22.94,22.94,0,0,1,984.6,416.09Z"/><path class="cls-2" d="M895.81,523.89c6.47-7.93,3.11-19.8-1.61-28.87s-10.75-18.73-8.67-28.75c3-14.39,19.94-20,33.64-25.32A138.34,138.34,0,0,0,948,425.64c3.59-2.5,7.12-5.22,9.63-8.81,3.61-5.16,4.76-11.6,5.78-17.81q5.1-31.06,8.72-62.34"/><path class="cls-2" d="M985.19,413a22.93,22.93,0,1,1,18-40.25l-6.06,10.15,9.68-6.3A22.93,22.93,0,0,1,985.19,413Z"/><path class="cls-1" d="M994.8,344.16a22.9,22.9,0,0,0-7.72-20.6l-7,9,2.46-12.05a22.93,22.93,0,1,0,12.21,23.63Z"/><path class="cls-2" d="M995.6,340a22.93,22.93,0,0,0-7.73-20.6l-6.94,9,2.45-12.05A22.93,22.93,0,1,0,995.6,340Z"/><path class="cls-1" d="M922.62,443.05a22.93,22.93,0,0,1,1.28-45.55L922,406.76l7-9.12h.07a22.93,22.93,0,0,1-6.48,45.4Z"/><path class="cls-2" d="M923.58,438.91a22.93,22.93,0,0,1,1.29-45.54L923,402.63l7-9.13h.06a22.93,22.93,0,1,1-6.48,45.4Z"/><path class="cls-1" d="M925.77,487.88A22.92,22.92,0,1,1,930.32,470l-16.25,8.76,16.16-.63A22.71,22.71,0,0,1,925.77,487.88Z"/><path class="cls-2" d="M926.37,484.76a22.94,22.94,0,1,1,4.54-17.93l-16.25,8.77,16.16-.64A22.8,22.8,0,0,1,926.37,484.76Z"/><rect class="cls-1" x="293.27" y="24.53" width="76.03" height="84.84"/><rect class="cls-2" x="306.49" y="16.82" width="76.03" height="84.84"/><rect class="cls-3" x="116.97" y="120.39" width="76.03" height="84.84"/><rect class="cls-2" x="130.19" y="112.68" width="76.03" height="84.84"/><rect class="cls-1" x="459.64" y="158.96" width="76.03" height="84.84"/><rect class="cls-2" x="472.87" y="151.24" width="76.03" height="84.84"/><ellipse class="cls-4" cx="656.32" cy="536.89" rx="95.31" ry="108.09"/><path class="cls-5" d="M778.67,177.22a155.52,155.52,0,0,1-72.81,12.61c6.4-4.57,10.51-11.9,12.17-19.59s1-15.73-.69-23.41a3.86,3.86,0,0,1,0-2.7,3.7,3.7,0,0,1,2.91-1.38c9.66-1.35,37.31-7.18,44.66,1.08,3.49,3.92,2.15,11.53,3.43,16.31C768.91,162.12,775.63,178.55,778.67,177.22Z"/><path class="cls-6" d="M778.67,177.22a155.52,155.52,0,0,1-72.81,12.61c6.4-4.57,10.51-11.9,12.17-19.59s1-15.73-.69-23.41a3.86,3.86,0,0,1,0-2.7,3.7,3.7,0,0,1,2.91-1.38c9.66-1.35,37.31-7.18,44.66,1.08,3.49,3.92,2.15,11.53,3.43,16.31C768.91,162.12,775.63,178.55,778.67,177.22Z"/><path class="cls-7" d="M698.19,341.31,555,345.72s-126.71,123.41-22,160.87c0,0,128.91,20.93,159.77-3.31C692.69,503.28,731.25,351.23,698.19,341.31Zm-6.61,40.77L538.43,392s11-37.47,55.09-37.47,93.66-9.91,98.06,13.23S691.58,382.08,691.58,382.08Z"/><path class="cls-5" d="M585.27,321.54c-7.14-1.09-14.91-1.72-21.17,1.9a33.8,33.8,0,0,0-5.77,4.55q-3.76,3.47-7.49,7c-1.81,1.72-3.71,3.62-4.17,6.07-1,5.05,4.88,9.12,10,8.92s9.75-3,14.6-4.72c9.77-3.42,45.7,2.43,47.66-8.09C621.44,323.78,593.22,322.81,585.27,321.54Z"/><path class="cls-3" d="M652.23,313.1a81.05,81.05,0,0,1-30,8.5,12.62,12.62,0,0,0-4.73,1,4.8,4.8,0,0,0-2,2.4,71.61,71.61,0,0,0-6.7,24.45,2.17,2.17,0,0,0,.78,2.23,6.71,6.71,0,0,0,3.23.73q25.73,1.63,51.6,1.75a5.39,5.39,0,0,0,2.25-.3,2.13,2.13,0,0,0,1-1.28,78.22,78.22,0,0,0,5.61-31.71C672.91,308.11,669.17,304.11,652.23,313.1Z"/><path class="cls-6" d="M652.23,313.1a81.05,81.05,0,0,1-30,8.5,12.62,12.62,0,0,0-4.73,1,4.8,4.8,0,0,0-2,2.4,71.61,71.61,0,0,0-6.7,24.45,2.17,2.17,0,0,0,.78,2.23,6.71,6.71,0,0,0,3.23.73q25.73,1.63,51.6,1.75a5.39,5.39,0,0,0,2.25-.3,2.13,2.13,0,0,0,1-1.28,78.22,78.22,0,0,0,5.61-31.71C672.91,308.11,669.17,304.11,652.23,313.1Z"/><path class="cls-4" d="M844.74,428.36l-188.42-6.61L700.4,235.54s176.29-13.23,171.89,32S844.74,428.36,844.74,428.36Z"/><path class="cls-4" d="M662.85,517.37s-113.4,20.07-154.17-39.43S662.94,450.4,662.94,450.4l16.52,45.17Z"/><circle class="cls-4" cx="628.78" cy="718.14" r="51.79"/><ellipse class="cls-7" cx="633.74" cy="718.14" rx="32.5" ry="37.46"/><path class="cls-7" d="M912,230s-43-24.24-45.17,33L830.42,529.73h15.42l41.87-285.38s20.94,3.31,24.24,3.31S912,230,912,230Z"/><path class="cls-4" d="M954.77,259.45h0a10.31,10.31,0,0,1-12.69,7.17,9.9,9.9,0,0,1-1.29-.46l-49.85-21.31,9-19.92,49.13,22.38A10.3,10.3,0,0,1,954.77,259.45Z"/><path class="cls-7" d="M651.92,511s-79.34-8.82-101.37,67.21-19.84,134.43-38.57,130-58.4-19.84-58.4-19.84l3.31,23.14s69.42,35.26,80.44-2.2S555,534.14,617.76,537.44s73.82-3.3,73.82-3.3Z"/><path class="cls-7" d="M501,474.64s-61.7,7.71-85.94,52.88-36.36,126.72-36.36,126.72H401.8s13.22-162,82.64-153.16Z"/><path class="cls-4" d="M459.09,727,361,666.36s-5.51-22,57.3-30.85c0,0,118.74,41.52,107.3,57.12S475.62,732.47,459.09,727Z"/><polygon class="cls-7" points="611.15 529.73 611.15 658.64 625.47 658.64 625.47 527.52 611.15 529.73"/><path class="cls-4" d="M632.08,609.06S659.63,717,642,732.47c0,0-23.14-68.32-40.77-59.5l5.51-63.91Z"/><circle class="cls-5" cx="738.96" cy="116.54" r="42.97"/><path class="cls-3" d="M730.84,181.67c17.52,3,32.67-17.4,50.21-14.54a33.87,33.87,0,0,1,10.79,4.25,107.06,107.06,0,0,1,51.6,69.11c2,8.83,2.75,18.42-1,26.67-2,4.39-5.12,8.13-8.26,11.78-11.67,13.58-24.48,27.11-41.14,33.67-1.62,5.64-.06,11.74,1.89,17.27,8.14,23.09-4.81,48-5.47,72.46-.11,4.19,0,8.77-2.6,12-2.91,3.63-8.1,4.28-12.74,4.54-42.55,2.4-85-4.13-127.15-10.64a6.41,6.41,0,0,1-3.09-1c-1.39-1.1-1.6-3.08-1.89-4.83-1.56-9.24,6.65-16.74,2.76-25.28-6.7-14.67,7.9-30.71,12.12-46.27s5.87-18.31,8.81-34.16c1.1-5.93-2.07-23.8-1.1-29.75,3.16-19.44.77-41.58,11-58.4,6.15-10.1,4.56-18,15.54-22.35C702.75,181.55,718.43,183.11,730.84,181.67Z"/><path class="cls-8" d="M536.77,437.94c-12.83,2.47-26.45,4.83-36.32,13.39-6,5.22-10.08,12.31-14,19.25l-40.16,70.81C434,563,421.76,584.59,410.66,606.8a11.78,11.78,0,0,0-1.66,5.32c0,2.65,1.82,4.93,3.65,6.85a58.58,58.58,0,0,0,49.58,17.44c2.77-14.31,16.36-23.76,23-36.72,3.66-7.12,5.13-15.12,7.49-22.77,8.82-28.52,29.75-51.43,50.07-73.31,9.6-10.34,19.43-20.86,31.81-27.64,14.51-8,31.36-10.16,47.58-13.47s33-8.32,44.49-20.25a47.77,47.77,0,0,0,12.73-38.91c-10.4-.73-22-2.08-32,1.26-11.64,3.88-22.9,9.19-34.56,13.15A574.85,574.85,0,0,1,536.77,437.94Z"/><path class="cls-6" d="M536.77,437.94c-12.83,2.47-26.45,4.83-36.32,13.39-6,5.22-10.08,12.31-14,19.25l-40.16,70.81C434,563,421.76,584.59,410.66,606.8a11.78,11.78,0,0,0-1.66,5.32c0,2.65,1.82,4.93,3.65,6.85a58.58,58.58,0,0,0,49.58,17.44c2.77-14.31,16.36-23.76,23-36.72,3.66-7.12,5.13-15.12,7.49-22.77,8.82-28.52,29.75-51.43,50.07-73.31,9.6-10.34,19.43-20.86,31.81-27.64,14.51-8,31.36-10.16,47.58-13.47s33-8.32,44.49-20.25a47.77,47.77,0,0,0,12.73-38.91c-10.4-.73-22-2.08-32,1.26-11.64,3.88-22.9,9.19-34.56,13.15A574.85,574.85,0,0,1,536.77,437.94Z"/><path class="cls-7" d="M363.62,662.48a9,9,0,0,0-3.17,4.08c-1.46,5,4.76,8.47,9.74,9.91,11.18,3.21,23.11,6.44,34.26,3.12,6.84-2,12.8-6.39,19.59-8.57,10.08-3.23,21-1.39,31.43.47a68.08,68.08,0,0,0-4.5-38.83c-3.35-7.72-16.74-11.47-24.71-11.81-8.71-.37-11.74,6.06-16.77,12C397.24,647.24,377.73,650.58,363.62,662.48Z"/><path class="cls-8" d="M545,459c-6.16,2.45-12.48,5-17.32,9.55-5.1,4.79-8.09,11.37-10.82,17.83A497.06,497.06,0,0,0,496.29,545c-2.84,10.07-5.37,20.25-9.2,30-7.63,19.43-20.58,38-19.37,58.89a14.08,14.08,0,0,0,2,7.19c1.73,2.51,4.67,3.84,7.47,5.06l14.65,6.36c7.86,3.41,17.46,6.69,24.48,1.78,4.7-3.29,6.58-9.25,8-14.81,5.12-20.07,8.28-40.92,17.46-59.49,10.37-21,27.9-38,37.18-59.45,1.31-3,2.56-6.3,5.14-8.38,2.13-1.72,4.9-2.39,7.57-3,55-12.53,111.29-19.39,165.88-33.71,7.76-2,15.88-4.46,21.42-10.27,7.67-8.05,8.36-20.29,8.6-31.41.16-7,.12-14.54-4.12-20.07-4.79-6.23-13.38-7.88-21.19-8.7-30-3.15-57.65,1.81-87.18,5.45C648,413.74,620.82,429,595.61,439Q570.28,449,545,459Z"/><path class="cls-7" d="M477.15,658.24c-4.12,9.78-8.56,20-16.92,26.55-3.49,2.74-8,5.48-8.15,9.91-.15,4.69,4.78,7.79,9.19,9.38,11.25,4,24,4.92,35,.18C503.78,701,510,695.4,516,689.89c1.82-1.66,3.7-3.41,4.55-5.72a14.73,14.73,0,0,0,.51-6,153.72,153.72,0,0,0-6.5-36.08c-.28-.92-24-3.87-26.09-3.33C481.86,640.48,479.71,652.18,477.15,658.24Z"/><path class="cls-7" d="M845.84,374.37,702.6,378.78s-126.71,123.4-22,160.87c0,0,128.91,20.93,159.76-3.31C840.33,536.34,878.9,384.28,845.84,374.37Zm-6.61,40.77-153.16,9.91s11-37.46,55.1-37.46,93.65-9.92,98.06,13.22S839.23,415.14,839.23,415.14Z"/><ellipse class="cls-4" cx="813.34" cy="606.86" rx="143.79" ry="163.07"/><ellipse class="cls-7" cx="819.95" cy="606.86" rx="108.53" ry="121.2"/><path class="cls-4" d="M848.05,605.21a33.23,33.23,0,0,0-.63-6.3l81.06-40.53L923,546.26l-81.89,39.89a16.47,16.47,0,0,0-2.72-2.27h.07l23.94-119.17-21.18-.48L827.11,581.52l1.35.28a13.26,13.26,0,0,0-3.16,1.08l-70.82-72.7-10,14,72.77,66.94A29.35,29.35,0,0,0,814,602.44L711.42,644.32,709.21,662l106.95-45a23.38,23.38,0,0,0,4.18,6.76l-32.9,112h12.12l27.62-107.48a12.46,12.46,0,0,0,3.79.6,13.18,13.18,0,0,0,7-2.09l57.46,75.92,17.63-12.12-67.32-73.53A31,31,0,0,0,848.05,605.21Z"/><path class="cls-4" d="M689,89.33c2-4.87,8.21-6.89,10.26-11.72C701.48,72.42,698,65.81,701,61s10.06-4.25,15.67-3.32c6.62,1.1,13.67,1.83,19.84-.79,2.75-1.17,5.19-3,7.85-4.31a27.69,27.69,0,0,1,13.67-3,6.18,6.18,0,0,1,3.07.73,5.73,5.73,0,0,1,2,2.57c1.93,4.18,2.21,9.41,5.7,12.41,1.68,1.44,3.86,2.12,5.88,3A25.41,25.41,0,0,1,789,93.76a52.12,52.12,0,0,0-.87,7.26c.14,5.36,3.64,10.71,1.85,15.77-1.33,3.75-5.22,6-9,7.13a5.18,5.18,0,0,1-3.41.17c-2-.79-2.34-3.3-3-5.32a13,13,0,0,0-12.64-8.9c-4.44.18-8.94,2.68-13.13,1.19-2.07-.72-3.68-2.32-5.33-3.76-3.79-3.3-8.27-6-13.25-6.76s-10.5,1-13.43,5.06c-1.19,1.65-1.91,3.6-3,5.29C703.55,126.06,684.83,99.86,689,89.33Z"/><rect class="cls-1" x="618.31" y="382.63" width="76.03" height="84.84"/><path class="cls-5" d="M711.92,351.21A11.72,11.72,0,0,0,701.69,355c-9.64,8.79-19.86,18.69-21.6,31.61a5.28,5.28,0,0,0,.4,3.5c.92,1.52,3,1.86,4.75,1.89a31.64,31.64,0,0,0,23.89-10.55c1.66-1.88,3.17-4,5.44-5.08a14.08,14.08,0,0,1,6.49-.81c6.05.2,19.87,3.29,25.14.29,5.54-3.15,4-13,1.43-17.81C741.48,346.72,722.4,351.1,711.92,351.21Z"/><path class="cls-3" d="M846.5,256c3.71,11.92,1.54,25.34,6.79,36.66,3.48,7.52,10,13.58,12.06,21.61,1.92,7.59-.65,15.77-5.15,22.17s-10.78,11.32-17.07,16c-6.89,5.1-14,10.08-22.16,12.84s-16.78,3.17-25.32,3.56L739,371.43l-10.43-31.26,36.89-14.45c3.69-1.44,7.45-2.9,11.41-3.2,6.83-.5,15.15,2,19.54-3.25a14.36,14.36,0,0,0,2.58-6.55c3.57-18.37.46-37.8,6-55.68,2.72-8.85,10.59-26.6,21.31-28.16C837.68,227.22,843.93,247.75,846.5,256Z"/></svg>